<?xml version="1.0" standalone="no"?>
<!DOCTYPE svg PUBLIC "-//W3C//DTD SVG 20010904//EN"
 "http://www.w3.org/TR/2001/REC-SVG-20010904/DTD/svg10.dtd">
<svg version="1.0" xmlns="http://www.w3.org/2000/svg"
 width="1280.000000pt" height="1280.000000pt" viewBox="0 0 1280.000000 1280.000000"
 preserveAspectRatio="xMidYMid meet">
<g transform="translate(0.000000,1280.000000) scale(0.100000,-0.100000)"
fill="#fffff" stroke="none">
<path d="M6425 11912 c-55 -26 -110 -54 -122 -60 -23 -13 -23 -14 -23 -251 0
-179 -3 -241 -12 -249 -7 -5 -58 -17 -113 -26 -422 -71 -942 -262 -1234 -454
-392 -258 -735 -716 -890 -1187 -90 -273 -120 -461 -128 -782 -11 -438 44
-758 188 -1108 102 -249 241 -454 449 -669 286 -293 465 -420 830 -587 265
-121 539 -219 783 -280 108 -27 128 -35 132 -53 3 -11 4 -646 3 -1411 l-3
-1390 -40 -3 c-56 -5 -183 15 -283 44 -100 29 -232 93 -334 161 -92 61 -263
225 -290 276 -65 129 -139 376 -193 650 l-35 178 -74 113 c-40 62 -78 116 -84
120 -12 7 -1079 -276 -1092 -290 -11 -12 21 -239 55 -390 38 -169 75 -287 166
-532 98 -262 172 -418 277 -577 95 -145 154 -219 281 -348 279 -286 563 -443
961 -531 137 -30 386 -63 560 -73 l125 -8 5 -265 5 -265 103 -187 c57 -103
109 -192 117 -198 9 -8 92 1 316 36 167 25 306 48 309 51 3 3 7 209 10 458 3
249 7 456 10 458 3 3 71 21 153 41 218 54 390 117 592 216 288 141 494 288
715 510 492 493 767 1119 798 1815 18 403 -33 724 -166 1036 -155 367 -417
652 -802 873 -137 78 -543 260 -690 309 -58 19 -199 58 -315 87 -115 29 -216
58 -223 65 -10 9 -10 173 -3 830 6 451 13 1095 17 1430 4 369 10 615 16 622
12 15 41 2 148 -70 153 -103 297 -271 389 -456 78 -154 153 -417 182 -636 6
-49 15 -94 19 -98 8 -9 247 -46 300 -47 45 0 1102 189 1113 200 5 4 4 52 -3
106 -75 665 -304 1178 -705 1579 -239 241 -497 397 -851 518 -137 47 -332 97
-477 122 -49 8 -93 17 -98 21 -5 3 -9 128 -9 290 l0 284 -34 0 c-39 0 -438 17
-596 25 l-105 5 -100 -48z m-145 -3093 c0 -831 -4 -1390 -9 -1393 -12 -8 -186
49 -306 99 -326 134 -578 445 -675 830 -41 163 -54 296 -47 497 8 252 50 426
152 628 146 291 407 550 681 676 116 54 177 73 192 62 9 -8 12 -300 12 -1399z
m1112 -2813 c239 -78 384 -142 433 -191 118 -117 208 -318 242 -540 18 -124
13 -428 -11 -555 -49 -262 -152 -492 -310 -693 -78 -100 -238 -256 -326 -318
-95 -67 -205 -129 -229 -129 -20 0 -21 5 -21 113 2 442 29 2348 35 2356 9 16
8 16 187 -43z"/>
</g>
</svg>
