<?xml version="1.0" standalone="no"?>
<!DOCTYPE svg PUBLIC "-//W3C//DTD SVG 20010904//EN"
 "http://www.w3.org/TR/2001/REC-SVG-20010904/DTD/svg10.dtd">
<svg version="1.0" xmlns="http://www.w3.org/2000/svg"
 width="1280.000000pt" height="1280.000000pt" viewBox="0 0 1280.000000 1280.000000"
 preserveAspectRatio="xMidYMid meet">
<g transform="translate(0.000000,1280.000000) scale(0.100000,-0.100000)"
fill="#0a66c2" stroke="none">
<path d="M2570 11964 c-93 -9 -197 -29 -323 -60 -203 -50 -319 -99 -477 -201
-201 -131 -334 -255 -457 -429 -157 -222 -210 -341 -281 -629 l-37 -150 -3
-4020 c-2 -2867 0 -4044 8 -4104 14 -103 52 -269 87 -376 98 -301 320 -602
584 -792 224 -162 380 -228 704 -301 l120 -27 3975 -3 c2798 -2 4003 0 4070 8
289 33 568 128 770 263 202 135 328 254 453 431 161 228 251 456 302 766 13
84 15 541 15 4080 0 4367 5 4026 -59 4286 -61 248 -149 422 -326 649 -88 112
-172 191 -302 283 -237 169 -392 233 -753 310 -68 14 -448 16 -4055 17 -2189
1 -3996 0 -4015 -1z m7905 -174 c4 -7 -1312 -10 -3940 -10 -2628 0 -3944 3
-3940 10 4 7 1328 10 3940 10 2612 0 3936 -3 3940 -10z m-608 -1161 c89 -12
249 -71 338 -125 126 -76 286 -235 354 -353 46 -78 101 -210 122 -291 12 -47
14 -561 14 -3415 0 -3178 -1 -3363 -18 -3424 -50 -183 -143 -339 -282 -476
-140 -137 -277 -215 -476 -272 -61 -17 -212 -18 -3414 -18 -3221 0 -3352 1
-3415 18 -104 30 -227 83 -306 132 -87 54 -243 205 -301 290 -85 127 -146 281
-162 410 -15 123 -16 6564 -1 6683 16 129 84 295 170 422 39 57 200 219 257
258 44 31 196 105 268 131 33 12 87 25 120 30 93 13 6636 13 6732 0z m-8687
-239 c0 -5 -2 -10 -4 -10 -3 0 -8 5 -11 10 -3 6 -1 10 4 10 6 0 11 -4 11 -10z
m10730 -21 c0 -10 -4 -19 -10 -19 -5 0 -10 12 -10 26 0 14 4 23 10 19 6 -3 10
-15 10 -26z m-9720 -369 c0 -5 -5 -10 -11 -10 -5 0 -7 5 -4 10 3 6 8 10 11 10
2 0 4 -4 4 -10z m8690 -206 c0 -8 -5 -12 -10 -9 -6 4 -8 11 -5 16 9 14 15 11
15 -7z m-4 -6691 c-10 -10 -19 5 -10 18 6 11 8 11 12 0 2 -7 1 -15 -2 -18z
m-6 -69 c0 -8 -4 -12 -10 -9 -5 3 -10 10 -10 16 0 5 5 9 10 9 6 0 10 -7 10
-16z m1040 -563 c0 -11 -4 -23 -10 -26 -6 -4 -10 5 -10 19 0 14 5 26 10 26 6
0 10 -9 10 -19z m-10730 -22 c0 -11 -4 -17 -10 -14 -5 3 -10 13 -10 21 0 8 5
14 10 14 6 0 10 -9 10 -21z"/>
<path d="M6200 9450 c-118 -12 -253 -36 -400 -71 -1036 -252 -1850 -1034
-2146 -2062 -176 -612 -150 -1300 73 -1877 145 -377 366 -727 633 -1003 447
-463 940 -732 1576 -862 214 -44 378 -57 614 -50 254 8 380 21 550 55 569 114
1073 385 1491 800 453 449 720 953 838 1580 64 341 60 743 -9 1104 -49 253
-120 463 -240 712 -103 214 -166 320 -296 494 -127 172 -403 453 -559 571
-426 323 -871 513 -1395 594 -121 19 -593 29 -730 15z m501 -780 c687 -69
1299 -449 1661 -1032 124 -199 243 -496 287 -714 54 -267 54 -584 0 -863 -46
-239 -182 -564 -322 -774 -224 -332 -503 -577 -862 -753 -323 -158 -542 -210
-935 -221 -241 -6 -354 5 -556 57 -319 82 -655 258 -885 463 -121 108 -264
259 -340 360 -193 256 -351 634 -401 957 -21 135 -18 600 5 720 130 699 578
1288 1212 1591 208 99 459 175 656 198 52 6 108 13 124 15 68 7 260 5 356 -4z"/>
<path d="M6150 8543 c-36 -13 -40 -33 -40 -224 0 -137 -3 -189 -12 -196 -7 -6
-53 -20 -102 -32 -264 -65 -524 -229 -665 -420 -66 -89 -126 -210 -153 -308
-27 -103 -30 -351 -5 -456 81 -330 349 -554 787 -659 74 -17 138 -37 142 -42
12 -17 10 -544 -2 -551 -15 -9 -72 29 -118 79 -53 57 -86 124 -118 238 -15 51
-33 101 -42 111 -14 16 -43 17 -346 17 -370 0 -376 -1 -376 -63 0 -125 71
-376 142 -505 155 -282 449 -516 761 -606 49 -14 93 -28 98 -32 5 -3 9 -94 9
-205 0 -186 1 -200 20 -219 19 -19 33 -20 335 -20 302 0 316 1 335 20 19 19
20 33 20 208 0 103 4 192 8 198 4 6 42 19 85 28 255 57 464 173 640 355 131
136 220 284 264 441 26 93 26 386 0 480 -44 156 -144 309 -270 410 -76 62
-273 160 -387 194 -89 26 -274 66 -308 66 -11 0 -23 7 -26 16 -11 29 -7 492 5
499 14 10 85 -41 124 -90 42 -51 69 -106 86 -173 23 -91 5 -87 381 -87 l330 0
19 24 c17 21 19 34 14 90 -33 325 -171 573 -424 760 -136 101 -291 168 -508
221 l-43 11 0 190 c0 188 0 190 -25 214 l-24 25 -298 -1 c-164 0 -305 -3 -313
-6z m-42 -1349 c3 -192 0 -214 -29 -214 -20 0 -80 29 -110 52 -77 62 -76 192
3 265 31 28 110 74 123 70 6 -2 11 -71 13 -173z m871 -1136 c90 -46 131 -100
131 -174 0 -72 -27 -123 -90 -173 -51 -41 -151 -84 -179 -79 -14 3 -16 31 -19
223 -1 121 0 226 3 234 8 21 79 7 154 -31z"/>
</g>
</svg>
