<?xml version="1.0" standalone="no"?>
<!DOCTYPE svg PUBLIC "-//W3C//DTD SVG 20010904//EN"
 "http://www.w3.org/TR/2001/REC-SVG-20010904/DTD/svg10.dtd">
<svg version="1.0" xmlns="http://www.w3.org/2000/svg"
 width="1280.000000pt" height="1280.000000pt" viewBox="0 0 1280.000000 1280.000000"
 preserveAspectRatio="xMidYMid meet">
<g transform="translate(0.000000,1280.000000) scale(0.100000,-0.100000)"
fill="#0a66c2" stroke="none">
<path d="M2630 11944 c-46 -9 -171 -54 -197 -71 -14 -10 -50 -27 -80 -39 -171
-70 -271 -171 -327 -333 -46 -132 -33 -309 25 -344 16 -10 46 0 224 76 44 19
98 42 120 51 22 10 60 26 85 38 50 23 114 52 206 93 94 42 114 34 157 -68 72
-170 71 -191 -15 -232 -86 -42 -237 -105 -250 -105 -7 0 -27 -8 -43 -19 -17
-10 -48 -24 -70 -31 -22 -7 -47 -19 -55 -26 -9 -7 -35 -20 -58 -28 -23 -9 -69
-28 -102 -43 -56 -25 -60 -30 -60 -60 0 -19 11 -55 24 -81 13 -26 38 -85 56
-132 29 -78 83 -198 115 -260 7 -14 29 -68 50 -120 34 -90 45 -115 101 -235
13 -27 37 -84 54 -125 64 -155 175 -413 210 -485 10 -22 35 -83 55 -135 20
-52 45 -110 55 -130 34 -63 69 -143 105 -238 20 -51 40 -101 45 -110 23 -43
86 -185 117 -267 19 -49 38 -94 42 -100 4 -5 18 -36 31 -68 35 -89 61 -94 182
-35 111 53 142 67 218 98 128 53 163 67 235 100 153 70 165 66 223 -65 24 -52
42 -109 42 -128 0 -33 -4 -38 -56 -66 -30 -16 -69 -33 -87 -37 -18 -3 -48 -15
-67 -25 -62 -33 -141 -69 -219 -100 -204 -83 -257 -108 -273 -130 -17 -23 -17
-26 3 -79 11 -30 24 -59 29 -65 8 -10 26 -52 104 -245 24 -58 62 -144 85 -192
23 -48 48 -104 56 -125 7 -21 30 -76 50 -123 20 -47 41 -98 47 -115 6 -16 19
-42 29 -56 10 -14 21 -38 25 -55 4 -16 16 -42 26 -59 10 -16 18 -36 18 -44 0
-13 36 -100 80 -196 58 -124 140 -315 140 -325 0 -7 11 -33 24 -59 13 -25 39
-80 56 -121 17 -41 42 -98 56 -125 13 -28 24 -54 24 -59 0 -8 84 -205 125
-291 35 -74 85 -192 85 -201 0 -4 9 -25 19 -48 11 -23 29 -61 40 -86 27 -58
151 -296 176 -335 10 -16 28 -46 40 -65 12 -19 30 -48 41 -64 10 -16 26 -41
34 -55 45 -80 211 -298 324 -426 30 -33 81 -94 114 -135 60 -75 205 -220 252
-252 135 -93 192 -120 270 -125 62 -4 67 -2 99 27 110 103 127 377 60 935 -29
242 -35 268 -124 600 -40 147 -117 377 -139 409 -7 12 -19 39 -26 61 -7 22
-33 82 -57 134 -23 51 -43 98 -43 104 0 5 -12 35 -26 66 -61 128 -75 160 -105
231 -17 41 -42 100 -55 130 -13 30 -37 88 -54 128 -17 41 -42 94 -56 119 -13
25 -24 52 -24 58 0 7 -11 37 -24 66 -12 30 -35 83 -50 119 -15 36 -38 88 -51
115 -14 28 -38 84 -55 125 -17 41 -40 93 -50 116 -11 23 -20 44 -20 48 0 4
-15 40 -34 79 -18 40 -46 101 -60 137 -15 36 -38 88 -52 115 -13 28 -24 56
-24 63 0 6 -11 33 -24 59 -14 27 -39 82 -56 123 -17 41 -40 91 -51 111 -10 20
-19 43 -19 50 0 8 -11 35 -25 61 -14 26 -25 53 -25 59 0 11 -16 48 -85 194
-13 28 -40 88 -59 135 -51 126 -64 157 -103 240 -58 126 -61 132 -97 227 -20
50 -44 109 -55 130 -11 21 -33 72 -50 113 -18 41 -40 93 -50 115 -11 22 -26
58 -34 80 -26 68 -73 179 -110 256 -43 91 -92 205 -102 239 -4 14 -13 34 -20
45 -6 11 -18 38 -25 60 -7 22 -21 51 -31 64 -11 13 -19 31 -19 40 0 9 -11 37
-25 63 -14 26 -25 52 -25 58 0 14 -48 127 -101 238 -22 45 -56 122 -75 170
-41 101 -86 206 -120 278 -13 28 -24 54 -24 58 0 4 -13 35 -28 69 -16 34 -38
85 -50 112 -12 28 -35 84 -53 125 -17 41 -45 104 -61 140 -17 36 -41 90 -55
120 -14 30 -30 66 -37 80 -28 62 -174 179 -270 216 -60 24 -198 39 -256 28z"/>
<path d="M1671 10969 c-30 -11 -74 -34 -98 -51 -56 -41 -80 -109 -63 -184 11
-46 60 -173 80 -204 6 -8 15 -26 21 -40 6 -14 22 -49 35 -78 13 -29 24 -58 24
-66 0 -7 11 -34 25 -60 14 -26 25 -52 25 -58 0 -6 21 -54 46 -107 48 -100 95
-207 120 -276 8 -22 21 -53 28 -70 46 -96 76 -165 76 -172 0 -4 11 -28 24 -53
13 -25 27 -56 31 -70 4 -14 17 -47 30 -75 12 -27 32 -75 45 -105 12 -30 40
-91 61 -135 21 -44 52 -116 69 -160 18 -44 40 -100 50 -125 9 -25 37 -85 61
-135 24 -49 51 -110 60 -135 41 -112 100 -248 121 -280 9 -14 21 -44 27 -67 7
-23 16 -45 21 -48 4 -3 16 -27 24 -53 21 -63 64 -108 114 -122 62 -16 115 -4
154 37 30 31 33 39 33 96 0 45 -6 72 -21 97 -12 19 -27 53 -34 75 -7 22 -17
45 -21 51 -5 6 -18 35 -28 65 -18 53 -93 225 -131 304 -11 22 -26 60 -35 84
-8 24 -19 49 -24 55 -4 6 -25 54 -46 106 -21 52 -46 111 -55 130 -10 19 -30
64 -45 100 -16 36 -39 89 -51 119 -13 29 -24 58 -24 64 0 5 -22 56 -49 112
-27 56 -64 138 -81 181 -47 117 -119 281 -176 399 -13 28 -24 55 -24 61 0 7
-11 38 -26 70 -26 62 -34 80 -82 184 -34 72 -58 136 -74 192 -9 31 -7 43 12
81 18 37 22 57 18 108 -5 79 -35 128 -96 158 -51 25 -80 25 -151 0z"/>
<path d="M1306 8285 l-31 -10 -3 -3206 c-2 -2757 0 -3208 12 -3225 14 -19 78
-19 5245 -22 5222 -2 5231 -2 5251 18 20 20 20 32 20 3224 0 2821 -2 3205 -15
3216 -12 10 -725 12 -3372 11 -1847 0 -3361 -1 -3364 -1 -18 0 -17 -37 2 -69
12 -20 27 -54 34 -76 19 -57 58 -148 76 -176 9 -13 19 -35 24 -49 4 -14 17
-47 30 -75 13 -27 38 -88 55 -135 18 -47 38 -96 46 -110 23 -44 84 -177 84
-184 0 -9 56 -141 74 -176 7 -14 19 -42 26 -63 6 -21 23 -51 37 -67 l25 -30
2908 0 c1600 0 2916 -3 2925 -6 47 -19 45 101 45 -2449 0 -2550 2 -2430 -45
-2449 -27 -10 -9681 -7 -9708 3 -13 5 -27 17 -31 27 -9 22 -8 4816 0 4839 4 9
18 21 32 26 15 6 344 9 848 9 453 -1 828 1 834 5 16 10 12 47 -10 80 -11 17
-20 36 -20 43 0 7 -14 43 -31 80 -17 37 -45 96 -61 132 -16 36 -36 79 -44 95
-7 17 -30 73 -50 125 -20 52 -41 101 -46 108 -14 17 -53 15 -72 -3 -8 -9 -46
-30 -83 -47 -62 -29 -77 -32 -168 -32 -83 -1 -110 3 -160 23 -122 49 -212 120
-285 226 -30 44 -100 189 -100 208 0 19 -71 158 -83 162 -27 10 -822 9 -851 0z"/>
<path d="M6208 5519 c-24 -14 -22 -56 5 -104 l23 -40 2246 -3 c2061 -2 2248
-1 2263 14 11 12 15 31 13 67 -3 43 -7 54 -28 64 -33 16 -4495 19 -4522 2z"/>
<path d="M2336 5504 c-18 -17 -22 -90 -6 -114 8 -13 120 -15 888 -18 700 -2
881 0 890 10 14 17 -8 81 -39 114 l-22 24 -848 0 c-757 0 -849 -2 -863 -16z"/>
<path d="M2350 4293 c-8 -3 -18 -11 -22 -17 -11 -16 -9 -128 2 -146 8 -13 161
-15 1257 -17 686 -2 1254 1 1261 6 19 12 -2 50 -67 121 l-50 55 -1183 2 c-651
1 -1190 -1 -1198 -4z"/>
<path d="M6401 4286 c-8 -9 -11 -43 -9 -93 l3 -78 2162 -3 c2012 -2 2163 -1
2178 15 13 13 16 30 13 79 -2 34 -10 69 -17 78 -12 15 -202 16 -2166 16 -1837
0 -2154 -2 -2164 -14z"/>
<path d="M6919 3039 c-18 -18 -21 -30 -17 -84 2 -35 10 -70 17 -79 12 -15 182
-16 1911 -16 1752 0 1899 1 1911 17 9 10 14 41 14 87 0 65 -2 71 -25 83 -20
10 -402 13 -1907 13 l-1883 0 -21 -21z"/>
</g>
</svg>
