<svg width="800" height="673" viewBox="0 0 800 673" fill="none" xmlns="http://www.w3.org/2000/svg">
<mask id="mask0" mask-type="alpha" maskUnits="userSpaceOnUse" x="0" y="0" width="800" height="673">
<rect width="800" height="673" fill="white"/>
</mask>
<g mask="url(#mask0)">
<path d="M766 -53.0918H-7C21.7955 -31.8847 120.731 -14.3964 139.537 84.2239C164.813 216.768 10.6169 206.695 42.2723 323.333C62.4391 397.641 124.18 410.061 203.207 427.784C262.884 441.168 305.256 458.718 342 503.71C378.736 548.703 425.371 521.508 488.952 545.893C682.986 620.299 766 515.125 766 515.125V63.547V-53.0918Z" fill="#4F9D3A" fill-opacity="0.05"/>
<path d="M800.006 -53.0918H60C87.5664 -29.8 182.279 -10.5924 200.283 97.7227C224.48 243.297 76.865 232.233 107.169 360.338C126.475 441.95 185.58 455.591 261.235 475.057C318.365 489.756 358.928 509.031 394.103 558.447C429.271 607.863 473.916 577.994 534.783 604.777C720.535 686.497 800.006 570.983 800.006 570.983V75.0132V-53.0918Z" fill="#4F9D3A" fill-opacity="0.05"/>
<path d="M800 -82.7871H54C81.7897 -60.5804 177.269 -42.2677 195.419 61.0013C219.812 199.793 71.0016 189.245 101.551 311.382C121.014 389.192 180.598 402.197 256.865 420.756C314.458 434.771 355.349 453.148 390.809 500.262C426.262 547.375 471.269 518.898 532.629 544.433C719.885 622.346 800 512.214 800 512.214V39.3498V-82.7871Z" fill="url(#paint0_linear)"/>
<path d="M196.177 540.751V547.97L195.36 554.047L193.009 555.857L191.188 556.532L190.742 557.579L184.652 562.305C182.451 563.395 179.941 563.756 177.508 563.332C176.475 563.183 177.647 560.388 177.961 559.955C179.404 558.086 180.979 556.317 182.677 554.661L187.177 548.226L192.193 540.225L196.177 540.751Z" fill="#161711"/>
<path d="M254.876 548.193L253.516 551.197L252.937 554.506L253.516 559.645L256.425 559.82L258.56 559.186L260.066 560.036C260.066 560.036 268.347 560.921 271.417 560.766C276.503 560.509 279.238 559.78 280.151 558.74C280.661 558.166 278.205 557.315 277.41 557.268C272.854 556.971 267.866 554.567 267.866 554.567L263.806 550.819L262.836 548.003L254.876 548.193Z" fill="#161711"/>
<path d="M262.605 289.2L259.996 253.128C259.996 253.128 249.427 278.308 252.699 289.416C255.971 300.524 262.605 289.2 262.605 289.2Z" fill="white"/>
<path d="M231.428 320.741L248.771 299.079L249.922 291.779L248.039 291.989L250.131 284.878H264.608L265.654 296.25L263.638 296.655L263.296 303.32L260.589 304.987L250.452 337.42L231.428 320.741Z" fill="#B1DEB0"/>
<path d="M198.492 323.82L235.237 316.548C235.237 316.548 266.701 321.423 266.701 383.546C266.701 383.843 218.326 398.267 218.242 386.517C218.04 357.157 198.492 323.82 198.492 323.82Z" fill="#DFEAD1"/>
<path d="M168.969 310.592L138.712 293.603C138.712 293.603 155.162 316.561 162.627 320.484C170.092 324.408 168.969 310.592 168.969 310.592Z" fill="white"/>
<path d="M208.915 325.097L175.31 309.559L176.091 308.229L167.698 306.196L157.213 320.005L166.443 325.893L167.691 323.51L170.098 319.998L168.117 324.266L176.872 332.126L184.295 332.983L211.908 352.107L208.915 325.097Z" fill="#DFEAD1"/>
<path d="M217.999 385.815L184.973 548.172L196.874 547.808L215.187 495.462L219.359 479.797L241.147 417.856L243.512 384.64L217.999 385.815Z" fill="#163F59"/>
<path d="M252.685 548.895L250.125 483.24L244.474 453.529L237.184 412.717L240.107 384.741L266.289 383.35L264.998 430.199L267.65 472.348L268.166 488.271L266.812 551.258L252.685 548.895Z" fill="#163F59"/>
<path d="M144.509 297.411C144.509 297.411 146.455 291.563 145.451 290.105C144.446 288.646 140.4 283.542 140.4 283.542L139.235 282.326C139.235 282.326 137.142 282.812 139.89 286.215C142.639 289.619 140.358 288.66 140.358 288.66L136.632 286.486L131.847 284.169L129.858 282.839C129.858 282.839 128.791 282.029 128.365 282.049C127.13 282.09 127.619 282.974 127.619 282.974L134.923 288.633L126.733 285.155C126.733 285.155 125.61 284.878 125.254 285.358C124.898 285.837 125.254 285.972 125.254 285.972L133.563 291.962L129.161 290.659C129.161 290.659 128.051 290.416 127.682 290.861C127.312 291.307 127.158 291.476 127.158 291.476L143.469 298.829L144.509 297.411Z" fill="white"/>
<path d="M133.772 289.788L127.863 287.674C127.228 287.357 126.532 287.171 125.819 287.127C125.707 287.125 125.595 287.145 125.491 287.187C125.386 287.228 125.292 287.289 125.213 287.367C125.134 287.445 125.072 287.537 125.031 287.639C124.99 287.74 124.971 287.849 124.975 287.958L133.563 292.009L133.772 289.788Z" fill="white"/>
<path d="M258.748 260.84C258.748 260.84 253.578 257.268 253.488 255.519C253.397 253.77 253.488 247.328 253.488 247.328L253.676 245.687C253.676 245.687 255.657 244.857 255.539 249.185C255.42 253.513 256.669 251.42 256.669 251.42L258.322 247.524L260.736 242.892L261.538 240.71C261.538 240.71 261.894 239.441 262.236 239.211C263.255 238.536 263.408 239.529 263.408 239.529L261.043 248.253L265.487 240.751C265.487 240.751 266.22 239.88 266.792 240.076C267.364 240.272 267.175 240.569 267.175 240.569L264.217 250.144L266.959 246.518C266.959 246.518 267.706 245.68 268.278 245.842C268.85 246.004 269.073 246.031 269.073 246.031L260.499 261.387L258.748 260.84Z" fill="white"/>
<path d="M262.71 248.53L266.149 243.418C266.465 242.799 266.909 242.25 267.454 241.804C267.543 241.739 267.644 241.691 267.752 241.664C267.86 241.637 267.973 241.631 268.084 241.647C268.194 241.663 268.3 241.7 268.396 241.756C268.491 241.812 268.574 241.886 268.64 241.973L264.217 250.144L262.71 248.53Z" fill="white"/>
<path d="M223.901 308.107C225.868 316.055 226.503 320.154 226.356 320.714C225.317 324.583 214.336 323.618 214.217 321.389C214.099 319.161 210.297 310.106 209.432 308.89C208.567 307.675 222.736 303.394 223.901 308.107Z" fill="white"/>
<path d="M216.876 306.108C214.604 306.463 212.39 307.104 210.29 308.013C211.588 310.248 212.92 312.436 213.939 313.827C216.785 317.696 221.159 317.878 224.061 318.29C224.76 318.365 225.465 318.335 226.154 318.202C225.959 316.784 225.303 313.833 223.887 308.073C223.343 305.96 220.148 305.67 216.876 306.108Z" fill="#E4EEF3"/>
<path d="M218.745 286.661L229.907 305.818C229.907 305.818 232.558 310.362 231.149 311.99C229.74 313.617 224.737 315.92 221.842 315.501C218.947 315.082 214.573 314.907 211.726 311.038C208.88 307.168 203.585 297.08 203.585 297.08C203.585 297.08 203.146 293.029 210.561 291.563C217.977 290.098 218.745 286.661 218.745 286.661Z" fill="white"/>
<path d="M215.354 282.373C216.352 282.137 218.194 281.995 219.373 283.237C220.552 284.48 220.454 287.478 219.31 288.511C218.166 289.544 209.704 294.231 208.455 294.44C207.206 294.649 204.967 295.318 203.188 294.244C202.009 293.569 203.948 289.605 206.166 289.112C211.803 287.849 211.643 283.271 215.354 282.373Z" fill="#194866"/>
<path d="M205.427 293.15L210.248 301.463L212.131 306.189L211.127 306.743L209.285 307.749C209.285 307.749 199.623 298.019 201.716 295.163C203.809 292.306 204.876 292.59 205.427 293.15Z" fill="#194866"/>
<path d="M211.482 307.601C211.582 307.771 211.645 307.959 211.669 308.153C211.694 308.347 211.678 308.543 211.624 308.731C211.569 308.92 211.477 309.096 211.352 309.249C211.227 309.403 211.073 309.531 210.896 309.627L210.115 310.052C209.76 310.245 209.341 310.294 208.949 310.189C208.557 310.084 208.224 309.833 208.022 309.492L206.257 306.46C206.059 306.116 206.009 305.709 206.119 305.33C206.228 304.95 206.489 304.628 206.843 304.434L207.624 304.002C207.98 303.81 208.4 303.762 208.792 303.868C209.184 303.974 209.517 304.226 209.717 304.569L211.482 307.601Z" fill="white"/>
<path d="M225.129 322.604C225.129 322.604 246.679 344.591 252.211 374.457C252.644 376.807 250.816 379.143 250.816 379.143L246.533 376.881C246.533 376.881 236.291 344.28 225.129 322.604Z" fill="#4F9D3A"/>
<path d="M224.836 322.443L225.694 327.521L213.848 322.389L214.148 321.018L224.836 322.443Z" fill="#B0BFDE"/>
<path d="M226.433 319.188L229.767 324.354L224.926 322.328L226.433 319.188Z" fill="#B0BFDE"/>
<path d="M392.758 455.926L387.135 458.377L381.993 456.817L379.042 441.361L388.935 441.138L392.758 455.926Z" fill="#593446"/>
<path d="M435.188 452.057L437.002 462.706L424.514 464.137L423.363 449.673L435.188 452.057Z" fill="#593446"/>
<path d="M392.29 463.273L383.807 463.435L383.758 460.943L380.123 463.509L358.733 463.921C358.733 463.921 359.033 460.545 373.384 459.714C377.067 459.505 379.551 454.596 379.551 454.596C379.551 454.596 381.358 452.955 384.204 456.622C384.944 457.581 392.667 455.562 392.667 455.562C392.667 455.562 393.525 460.572 392.29 463.273Z" fill="#081832"/>
<path d="M436.932 469.56L428.442 469.924L428.351 467.392L424.752 470.093L403.334 471.018C403.334 471.018 403.571 467.561 417.943 466.393C421.633 466.096 424.026 461.051 424.026 461.051C424.026 461.051 425.812 459.35 428.721 463.03C429.475 463.982 437.176 461.754 437.176 461.754C437.176 461.754 438.118 466.784 436.932 469.56Z" fill="#081832"/>
<path d="M430.409 250.981C422.137 247.933 413.662 245.424 405.043 243.472C392.241 240.622 378.882 239.42 376.517 240.244C371.633 241.986 371.766 266.295 373.859 286.641C374.657 294.443 374.779 302.297 374.221 310.119C374.221 310.119 413.38 330.674 416.338 330.431C419.296 330.188 426.984 322.605 426.293 316.399C425.603 310.194 430.026 272.839 435.132 267.254C440.239 261.67 437.874 252.358 430.409 250.981Z" fill="#DFEAD1"/>
<path d="M380.82 451.807L393.685 452.246L390.566 315.339L367.475 308.465C367.475 308.465 367.558 396.261 380.82 451.807Z" fill="#163F59"/>
<path d="M416.247 315.461L421.863 385.91L440.455 458.81L422.065 459.249L380.8 312.996L398.604 315.508L416.247 315.461Z" fill="#194866"/>
<path d="M402.147 317.973C402.147 317.973 397.208 316.359 395.52 315.947C384.762 313.469 371.291 303.272 371.291 303.272C371.291 303.272 370.167 312.287 368.835 326.434L397.62 347.184L402.147 317.973Z" fill="#194866"/>
<path d="M418.187 224.673C418.187 224.673 413.757 233.309 417.636 242.419C421.514 251.528 395.13 242.966 395.13 242.966C395.13 242.966 404.052 235.538 390.839 228.785C383.8 225.159 416.338 220.892 418.187 224.673Z" fill="#EDEEF0"/>
<path d="M384.881 311.01C383.269 310.403 382.034 309.066 380.381 308.499C377.556 276.255 389.946 262.872 402.608 241.156L406.27 242.857C395.708 261.751 382.746 278.504 384.881 311.01Z" fill="#B1DEB0"/>
<path d="M417.286 216.307C417.077 209.73 406.759 199.365 403.285 201.451C401.894 202.247 400.67 203.289 399.678 204.524C398.715 205.874 397.752 207.265 396.804 208.575C396.581 208.876 396.394 209.2 396.245 209.541C396.245 209.541 396.211 209.581 396.197 209.608L388.132 226.49C388.023 226.737 388.017 227.015 388.115 227.266C388.212 227.517 388.406 227.723 388.655 227.84L400.11 232.965C400.606 233.181 409.48 230.737 411.084 229.94C412.989 229.15 414.761 228.846 415.905 227.995C417.391 226.969 417.488 222.215 417.286 216.307Z" fill="#EDEEF0"/>
<path d="M403.236 207.285L404.059 216.077L404.882 224.869L396.608 221.162L389.485 215.962L395.785 212.377L403.236 207.285Z" fill="#EDEEF0"/>
<path d="M416.721 229.015L423.314 215.827C423.314 215.827 421.751 210.034 414.182 205.145C406.612 200.256 403.187 200.344 403.187 200.344L398.666 200.85L398.771 205.435L408.538 208.872L404.031 214.018L402.908 221.364L405.119 222.492V222.688C405.119 222.688 406.305 218.717 409.305 217.961C412.305 217.205 413.212 220.291 411.189 222.269C409.166 224.248 409.096 225.146 409.096 225.146L411.098 228.954L416.721 229.015Z" fill="#194866"/>
<path d="M404.387 239.738L402.531 243.627L396.553 247.631L393.546 241.176L397.85 236.416L404.387 239.738Z" fill="#B1DEB0"/>
<path d="M418.814 241.865L419.477 247.274L407.708 250.657L402.531 243.627L404.387 239.738L418.814 241.865Z" fill="#B1DEB0"/>
<path d="M437.022 251.386L419.198 245.923C419.198 245.923 399.259 281.712 407.052 298.877C414.844 316.041 412.675 322.713 410.875 332.355C409.075 341.998 411.963 352.336 411.963 352.336L434.671 331.457C434.671 331.457 438.341 325.144 436.318 319.884C434.295 314.623 427.883 302.368 429.551 287.114C431.218 271.86 434.539 254.195 437.022 251.386Z" fill="#163F59"/>
<path d="M371.04 337.413C371.04 337.413 377.158 280.692 379.021 272.434C380.751 264.729 393.567 241.176 393.567 241.176L375.735 238.57C375.735 238.57 364.266 265.843 365.661 273.149C366.08 275.351 366.756 291.908 367.824 298.579C368.403 302.246 359.954 323.807 362.703 326.65C365.835 329.884 372.121 337.764 371.04 337.413Z" fill="#163F59"/>
<path d="M376.649 280.813C378.301 275.429 380.281 270.143 382.579 264.986C386.73 255.438 393.567 241.176 393.567 241.176L382.307 240.069L376.531 250.468L380.417 253.385L374.18 259.638C374.18 259.638 374.731 271.286 376.649 280.813Z" fill="#194866"/>
<path d="M430.186 249.597L424.605 263.628L416.993 268.72L419.784 276.255C419.784 276.255 412.961 283.683 411.684 309.782C411.684 310.113 400.592 287.694 411.559 263.466C415.744 254.263 419.233 245.91 419.233 245.91L430.186 249.597Z" fill="#194866"/>
<path d="M330.569 227.185L326.502 218.832L321.13 216.671L317.691 222.573L316.072 227.232L317.663 230.561C317.663 230.561 324.332 234.113 328.316 232.79C332.299 231.466 330.569 227.185 330.569 227.185Z" fill="#EDEEF0"/>
<path d="M386.493 244.809C386.493 244.809 373.091 269.726 364.21 268.746C355.538 267.767 359.689 262.615 361.559 257.753C363.429 252.892 372.651 241.412 373.823 239.758C375.296 237.692 378.916 239.522 386.493 244.809Z" fill="#163F59"/>
<path d="M365.284 258.152C365.284 258.152 368.807 265.093 364.852 269.01C360.896 272.926 350.934 266.883 341.195 255.41C335.215 248.34 329.699 240.914 324.682 233.174L330.346 226.611C330.346 226.611 365.054 253.871 365.284 258.152Z" fill="#194866"/>
<path d="M358.077 268.079C358.043 268.497 358.008 268.923 357.966 269.341C357.987 268.916 358.043 268.497 358.077 268.079Z" fill="#A9B0B2"/>
<path d="M346.63 225.767L346.197 225.193L346.63 225.767Z" fill="#5C5F60"/>
<path d="M369.484 266.303L358.077 268.079C358.043 268.497 358.008 268.916 357.966 269.341L369.372 267.565C369.414 267.147 369.449 266.728 369.484 266.303Z" fill="#717677"/>
<path d="M368.619 272.657L357.213 274.453C357.094 275.027 356.975 275.601 356.843 276.175L368.249 274.406C368.382 273.832 368.507 273.258 368.619 272.677" fill="#717677"/>
<path d="M368.619 272.657C368.5 273.244 368.375 273.818 368.249 274.385C368.382 273.811 368.507 273.237 368.619 272.657Z" fill="#5C5F60"/>
<path d="M367.385 277.701L355.978 279.477C355.978 279.51 355.978 279.551 355.943 279.585L367.35 277.829C367.365 277.792 367.376 277.753 367.385 277.714" fill="#757A7B"/>
<path d="M357.604 223.424L346.197 225.193L346.63 225.767L358.036 223.998L357.604 223.424Z" fill="#5F6364"/>
<path d="M354.318 219.521L342.911 221.29C343.169 221.56 343.42 221.844 343.672 222.121L355.078 220.345C354.827 220.068 354.576 219.791 354.318 219.521Z" fill="#602150"/>
<path d="M333.388 213.856C332.809 213.545 332.23 213.261 331.644 212.998C332.223 213.268 332.802 213.545 333.388 213.856Z" fill="#DFBB60"/>
<path d="M361.587 290.024L350.181 291.793C350.055 291.982 349.929 292.164 349.797 292.34L361.21 290.571L361.587 290.024Z" fill="#957D40"/>
<path d="M361.587 290.024L361.21 290.571C361.336 290.395 361.461 290.213 361.587 290.024Z" fill="#DEBB5F"/>
<path d="M360.778 291.145L349.371 292.921C347.858 294.923 346.096 296.737 344.125 298.323L355.531 296.554C357.504 294.969 359.266 293.155 360.778 291.152" fill="#957D40"/>
<path d="M354.318 219.521L342.911 221.29L337.421 232.351L348.827 230.582L354.318 219.521Z" fill="#687582"/>
<path d="M343.057 211.222L331.644 213.005C332.23 213.268 332.809 213.552 333.388 213.862L344.794 212.093C344.215 211.783 343.636 211.492 343.057 211.229" fill="#7D6936"/>
<path d="M342.248 225.443L330.842 227.185C333.31 228.539 335.532 230.275 337.421 232.324L348.827 230.562C346.94 228.511 344.717 226.775 342.248 225.423" fill="#215360"/>
<path d="M355.078 220.345C354.826 220.068 354.575 219.784 354.317 219.514C351.609 216.528 348.39 214.015 344.801 212.086L342.248 225.443C344.717 226.795 346.94 228.531 348.827 230.582L354.317 219.521C354.575 219.791 354.826 220.068 355.078 220.345Z" fill="#3A93AA"/>
<path d="M344.802 212.086L333.395 213.862L330.842 227.212L342.248 225.443L344.802 212.086Z" fill="#7E2B69"/>
<path d="M331.268 223.35L319.861 225.119C323.659 224.593 327.528 225.331 330.835 227.212L342.242 225.436C338.934 223.556 335.064 222.821 331.268 223.35Z" fill="#7C2F15"/>
<path d="M348.039 259.894C348.036 259.87 348.036 259.845 348.039 259.82C348.039 259.145 347.983 258.47 347.934 257.835L347.893 257.362C347.893 257.011 347.823 256.687 347.788 256.309C347.732 255.782 347.669 255.262 347.593 254.742C347.544 254.425 347.502 254.121 347.446 253.804C347.362 253.29 347.272 252.777 347.167 252.271C347.111 251.974 347.055 251.677 346.986 251.386C346.853 250.779 346.707 250.178 346.553 249.577C346.497 249.381 346.449 249.178 346.4 248.976C346.176 248.179 345.939 247.389 345.702 246.612C345.5 246.018 345.283 245.424 345.06 244.836C345.004 244.688 344.942 244.532 344.879 244.384C344.697 243.904 344.495 243.432 344.293 242.966L344.104 242.534C343.839 241.949 343.567 241.375 343.288 240.812L343.177 240.603C342.918 240.096 342.646 239.59 342.367 239.103L342.186 238.779C341.879 238.259 341.565 237.739 341.237 237.233L341.042 236.929C340.742 236.477 340.428 236.024 340.114 235.579L339.96 235.369C339.612 234.897 339.263 234.431 338.872 233.978L338.621 233.674C338.237 233.222 337.847 232.77 337.449 232.324L348.827 230.562C349.232 230.987 349.616 231.433 350 231.912L350.258 232.223C350.627 232.675 350.99 233.134 351.339 233.614C351.394 233.683 351.445 233.755 351.492 233.83C351.806 234.262 352.113 234.708 352.42 235.18C352.483 235.282 352.553 235.383 352.623 235.484C352.944 235.991 353.264 236.504 353.564 237.03L353.753 237.355C354.023 237.841 354.288 238.334 354.548 238.833C354.592 238.91 354.631 238.989 354.667 239.07C354.688 239.1 354.707 239.131 354.723 239.164C354.988 239.698 355.239 240.231 355.483 240.778L355.678 241.224C355.881 241.683 356.076 242.156 356.264 242.628C356.32 242.784 356.383 242.932 356.439 243.087C356.655 243.648 356.864 244.208 357.053 244.782C357.055 244.812 357.055 244.841 357.053 244.87C357.311 245.647 357.548 246.43 357.75 247.22C357.806 247.423 357.848 247.632 357.904 247.834C358.057 248.435 358.204 249.03 358.343 249.631C358.343 249.739 358.392 249.84 358.413 249.941C358.434 250.043 358.483 250.326 358.518 250.515C358.622 251.028 358.713 251.542 358.797 252.055C358.853 252.365 358.894 252.676 358.943 252.993C359.02 253.513 359.083 254.033 359.139 254.553C359.139 254.756 359.194 254.958 359.215 255.154C359.236 255.35 359.215 255.465 359.25 255.62C359.285 255.775 359.25 255.924 359.285 256.079C359.334 256.755 359.376 257.43 359.397 258.105V258.146C359.397 258.821 359.397 259.462 359.397 260.117C359.397 260.266 359.397 260.414 359.397 260.563C359.397 260.711 359.397 260.847 359.397 260.988C359.397 261.529 359.348 262.069 359.306 262.609C359.19 264.194 358.985 265.772 358.692 267.336C358.553 268.065 358.392 268.774 358.218 269.469C358.214 269.481 358.214 269.492 358.218 269.503C358.064 270.097 357.897 270.678 357.722 271.245L357.597 271.644C357.415 272.218 357.22 272.785 357.011 273.339L356.969 273.433C356.774 273.953 356.557 274.46 356.334 274.959L356.174 275.304C355.943 275.81 355.699 276.31 355.434 276.789C355.401 276.861 355.364 276.931 355.323 276.999C355.085 277.431 354.841 277.843 354.59 278.248C354.534 278.342 354.478 278.437 354.416 278.531C354.353 278.626 354.339 278.666 354.297 278.727C354.178 278.916 354.046 279.078 353.92 279.267L353.362 280.064C353.195 280.28 353.02 280.49 352.853 280.699C352.685 280.908 352.455 281.192 352.253 281.421C352.051 281.651 351.897 281.813 351.709 282.009C351.52 282.205 351.297 282.448 351.081 282.684C350.865 282.92 350.697 283.042 350.502 283.211C350.306 283.38 350.069 283.602 349.846 283.785C349.776 283.846 349.707 283.913 349.637 283.967C349.386 284.17 349.12 284.366 348.862 284.548L348.786 284.609C348.402 284.879 348.011 285.129 347.614 285.365L347.314 285.54C346.965 285.736 346.616 285.925 346.26 286.094L346.072 286.189L345.995 286.229C345.618 286.405 345.228 286.553 344.837 286.702L344.565 286.796C344.146 286.945 343.728 287.073 343.302 287.188L343.135 287.222C342.911 287.283 342.681 287.337 342.437 287.384C342.193 287.431 341.977 287.472 341.739 287.505L330.333 289.275C330.803 289.204 331.269 289.109 331.728 288.991H331.861C332.293 288.876 332.719 288.741 333.138 288.593L333.41 288.498C333.828 288.343 334.233 288.174 334.637 287.992C334.707 287.96 334.775 287.924 334.84 287.884C335.196 287.722 335.537 287.532 335.879 287.343L336.193 287.161C336.584 286.925 336.975 286.675 337.358 286.405L337.442 286.344C337.77 286.108 338.098 285.851 338.412 285.588C338.726 285.324 338.858 285.21 339.109 285.007C339.36 284.804 339.493 284.663 339.681 284.48C339.87 284.298 340.107 284.048 340.316 283.805C340.526 283.562 340.679 283.427 340.853 283.224C341.028 283.022 341.258 282.745 341.453 282.502C341.649 282.259 341.795 282.083 341.956 281.867C342.116 281.651 342.332 281.34 342.514 281.077C342.695 280.814 342.856 280.591 343.016 280.334L343.191 280.057C343.442 279.652 343.686 279.234 343.923 278.801L344.035 278.599C344.293 278.119 344.537 277.62 344.774 277.107L344.935 276.762C345.158 276.263 345.367 275.756 345.57 275.236L345.611 275.142C345.821 274.588 346.009 274.021 346.197 273.447L346.323 273.055C346.497 272.474 346.672 271.88 346.825 271.272C346.979 270.665 347.153 269.868 347.293 269.139C347.591 267.576 347.798 265.997 347.914 264.412C347.962 263.737 347.99 263.061 348.004 262.386C348.004 262.231 348.004 262.075 348.004 261.913C348.053 261.177 348.053 260.536 348.039 259.894Z" fill="#AEC4DB"/>
<path d="M360.778 291.145L349.371 292.921C347.858 294.923 346.096 296.737 344.125 298.323L355.531 296.554C357.504 294.969 359.266 293.155 360.778 291.152" fill="#957D40"/>
<path d="M355.538 296.567L344.132 298.337C342.518 299.635 340.744 300.735 338.851 301.612L350.257 299.836C352.15 298.962 353.924 297.864 355.538 296.567Z" fill="#90793E"/>
<path d="M350.256 299.835L338.85 301.611C337.224 302.361 335.512 302.92 333.75 303.279L345.156 301.503C346.919 301.148 348.632 300.588 350.256 299.835Z" fill="#8B753C"/>
<path d="M345.157 301.503L333.751 303.279L332.753 303.455L344.159 301.686C344.494 301.632 344.857 301.571 345.157 301.503Z" fill="#86713A"/>
<path d="M369.553 265.438C370.649 250.508 366.421 235.281 358.035 223.998L357.603 223.424C357.352 223.08 357.094 222.749 356.829 222.418C356.64 222.188 356.452 221.959 356.256 221.743C355.873 221.27 355.482 220.811 355.077 220.352C354.826 220.075 354.575 219.798 354.317 219.528L348.827 230.561C356.033 238.212 360.226 250.583 359.347 262.535C359.231 264.12 359.026 265.698 358.733 267.261C355.566 283.798 343.05 291.874 330.779 285.304C325.895 282.698 321.807 278.14 318.835 272.589L310.924 280.28C315.228 288.316 321.165 294.879 328.218 298.66C329 299.072 329.788 299.437 330.569 299.775L331.169 300.031C331.769 300.274 332.362 300.49 332.955 300.706C333.276 300.815 333.597 300.909 333.918 301.004C334.239 301.098 334.539 301.186 334.853 301.267C344.759 303.698 354.219 299.808 360.784 291.172C360.952 290.956 361.077 290.774 361.21 290.598L361.586 290.051C363.859 286.752 365.637 283.157 366.868 279.375C367.056 278.815 367.202 278.329 367.349 277.842L367.565 277.127C367.649 276.83 367.726 276.519 367.802 276.222C367.921 275.79 368.033 275.358 368.144 274.912C368.179 274.743 368.207 274.581 368.249 274.412C368.374 273.845 368.5 273.271 368.619 272.684C368.863 271.394 369.03 270.347 369.17 269.307C369.17 269.166 369.212 269.01 369.233 268.862C369.288 268.443 369.33 268.031 369.372 267.606C369.414 267.18 369.449 266.768 369.484 266.343C369.512 266.019 369.533 265.728 369.553 265.438Z" fill="#E4EEF3"/>
<path d="M315.396 216.023L303.989 217.793L310.505 229.961L321.919 228.191L315.396 216.023Z" fill="#873317"/>
<path d="M316.993 214.571L305.587 216.34C303.176 218.385 301.086 220.76 299.385 223.39L310.798 221.621C312.493 218.989 314.581 216.613 316.993 214.571Z" fill="#9E792F"/>
<path d="M316.993 214.571L305.587 216.34C303.176 218.385 301.086 220.76 299.385 223.39L310.798 221.621C312.493 218.989 314.581 216.613 316.993 214.571Z" fill="#8D9497"/>
<path d="M328.833 208.893L317.427 210.668C317.113 210.716 316.806 210.77 316.492 210.831L327.906 209.061L328.833 208.893Z" fill="#853216"/>
<path d="M327.905 209.062L316.492 210.831C314.82 211.175 313.195 211.708 311.65 212.418L323.064 210.649C324.605 209.932 326.231 209.399 327.905 209.062Z" fill="#8A3417"/>
<path d="M323.063 210.648L311.65 212.418C309.725 213.321 307.924 214.455 306.292 215.794L317.698 214.025C319.335 212.698 321.138 211.575 323.063 210.682" fill="#8F3618"/>
<path d="M317.699 213.991L306.292 215.76L305.595 216.341C305.051 216.8 304.513 217.286 303.997 217.792L315.431 216.023C315.955 215.517 316.492 215.031 317.029 214.571C317.259 214.369 317.496 214.18 317.727 213.991" fill="#943819"/>
<path d="M304.38 238.185L292.974 239.954L302.887 245.248L314.293 243.479L304.38 238.185Z" fill="#807026"/>
<path d="M304.38 238.178L292.981 239.947C292.82 240.737 292.702 241.521 292.576 242.304L303.983 240.535C304.108 239.752 304.234 238.968 304.38 238.178Z" fill="#2D9A82"/>
<path d="M304.38 238.185L292.974 239.954C292.82 240.738 292.695 241.521 292.576 242.304L303.983 240.535C304.103 239.752 304.236 238.968 304.38 238.185Z" fill="#2D3137"/>
<path d="M316.993 214.571L305.587 216.34C303.176 218.385 301.086 220.76 299.385 223.39L310.798 221.621C312.493 218.989 314.581 216.613 316.993 214.571Z" fill="#8D9497"/>
<path d="M310.798 221.621L299.385 223.39C296.727 227.56 294.79 232.122 293.65 236.895L305.057 235.126C306.201 230.353 308.14 225.791 310.798 221.621Z" fill="#92989C"/>
<path d="M305.057 235.105L293.65 236.875C293.399 237.874 293.169 238.9 292.953 239.947C292.792 240.764 292.66 241.588 292.541 242.412L303.947 240.636C304.066 239.819 304.199 238.995 304.359 238.171C304.561 237.124 304.785 236.105 305.057 235.105Z" fill="#8D9497"/>
<path d="M316.993 214.571L305.587 216.34C303.176 218.385 301.086 220.76 299.385 223.39L310.798 221.621C312.493 218.989 314.581 216.613 316.993 214.571Z" fill="#9E792F"/>
<path d="M310.798 221.621L299.385 223.39C296.727 227.56 294.79 232.122 293.65 236.895L305.057 235.126C306.201 230.353 308.14 225.791 310.798 221.621Z" fill="#A37D30"/>
<path d="M305.057 235.105L293.65 236.875C293.399 237.874 293.169 238.9 292.953 239.947C292.792 240.764 292.66 241.588 292.541 242.412L303.947 240.636C304.066 239.819 304.199 238.995 304.359 238.171C304.561 237.124 304.785 236.105 305.057 235.105Z" fill="#9E792F"/>
<path d="M321.919 228.191L315.396 216.037C315.919 215.53 316.456 215.044 316.994 214.585C310.973 219.609 306.383 227.725 304.38 238.219C304.22 239.043 304.087 239.866 303.969 240.683V240.582C304.09 239.799 304.222 239.016 304.366 238.232L314.28 243.526C315.55 236.909 318.305 231.696 321.919 228.191Z" fill="#ECB445"/>
<path d="M344.802 212.087C344.216 211.769 343.637 211.492 343.058 211.222C333.696 206.88 324.675 208.028 316.994 214.599C316.457 215.058 315.92 215.544 315.396 216.05L321.919 228.205C327.396 222.884 334.854 221.493 342.242 225.45L344.802 212.087Z" fill="#DC5325"/>
<path d="M299.51 282.042C299.101 281.273 298.703 280.496 298.317 279.713C298.703 280.492 299.101 281.268 299.51 282.042Z" fill="#24252D"/>
<path d="M303.969 240.636L292.562 242.412C292.465 243.006 292.395 243.607 292.325 244.208C292.325 244.31 292.325 244.411 292.325 244.505C292.214 245.417 292.13 246.322 292.06 247.206C292.004 247.996 291.962 248.793 291.935 249.583L303.341 247.814C303.341 247.024 303.411 246.227 303.474 245.43C303.536 244.519 303.627 243.614 303.732 242.729C303.732 242.628 303.732 242.534 303.767 242.432C303.836 241.831 303.906 241.23 304.004 240.629" fill="#2D779A"/>
<path d="M303.306 247.848L291.9 249.617C291.804 252.347 291.883 255.08 292.137 257.801L303.571 256.032C303.312 253.311 303.23 250.578 303.327 247.848" fill="#2B7495"/>
<path d="M303.571 256.032L292.157 257.801C292.388 260.186 292.751 262.557 293.246 264.905L304.652 263.135C304.156 260.789 303.795 258.417 303.571 256.032Z" fill="#2A7090"/>
<path d="M304.632 263.136L293.226 264.905C293.745 267.316 294.404 269.696 295.2 272.036L306.613 270.266C305.822 267.928 305.17 265.547 304.66 263.136" fill="#286C8B"/>
<path d="M306.585 270.266L295.199 272.035C296.086 274.654 297.136 277.218 298.346 279.713C298.464 279.942 298.576 280.179 298.694 280.388L310.101 278.612C309.989 278.383 309.871 278.146 309.759 277.937C308.544 275.447 307.493 272.885 306.613 270.266" fill="#276886"/>
<path d="M310.073 278.639L298.688 280.415C298.96 280.955 299.239 281.496 299.532 282.043L310.938 280.267C310.645 279.726 310.366 279.186 310.094 278.639" fill="#256381"/>
<path d="M318.835 272.583L307.422 274.352L299.518 282.05L310.924 280.274L318.835 272.583Z" fill="#63657C"/>
<path d="M328.219 298.654C329 299.066 329.788 299.43 330.57 299.768L331.17 300.025C331.77 300.268 332.363 300.484 332.956 300.7C333.276 300.808 333.597 300.902 333.918 300.997C334.239 301.092 334.539 301.179 334.853 301.26L335.348 301.375C338.23 302.041 341.219 302.153 344.146 301.706L342.206 302.01L342.862 301.963H343.232C343.581 301.963 343.929 301.888 344.271 301.834H344.369L332.956 303.603H332.851C332.509 303.658 332.153 303.705 331.825 303.739L331.393 303.772L330.695 303.826H330.2H329.537H329.028H328.372L327.842 303.786C327.633 303.786 327.416 303.786 327.2 303.732L326.656 303.671L326.021 303.583L325.47 303.495L324.828 303.374L324.27 303.252L323.816 303.158L323.628 303.104L323.447 303.07L322.512 302.813L321.549 302.516C320.963 302.314 320.356 302.098 319.763 301.841C319.568 301.76 319.365 301.679 319.163 301.584C318.375 301.247 317.593 300.909 316.812 300.47C309.759 296.696 303.822 290.132 299.518 282.097L310.924 280.321C315.228 288.309 321.165 294.872 328.219 298.654Z" fill="#96A9BD"/>
<path d="M303.732 242.439L292.325 244.208C292.325 244.31 292.325 244.411 292.325 244.505L303.697 242.716C303.697 242.615 303.697 242.52 303.732 242.419" fill="#958A40"/>
<path d="M303.732 242.439L292.325 244.208C292.325 244.31 292.325 244.411 292.325 244.505L303.697 242.716C303.697 242.615 303.697 242.52 303.732 242.419" fill="#8D8F97"/>
<path d="M303.969 240.636L292.562 242.412C292.465 243.006 292.395 243.607 292.325 244.208C292.325 244.31 292.325 244.411 292.325 244.505C292.214 245.417 292.13 246.322 292.06 247.206C292.004 247.996 291.962 248.793 291.935 249.583L303.341 247.814C303.341 247.024 303.411 246.227 303.474 245.43C303.536 244.519 303.627 243.614 303.732 242.729C303.732 242.628 303.732 242.534 303.767 242.432C303.836 241.831 303.906 241.23 304.004 240.629" fill="#2D779A"/>
<path d="M303.306 247.848L291.9 249.617C291.804 252.347 291.883 255.08 292.137 257.801L303.571 256.032C303.312 253.311 303.23 250.578 303.327 247.848" fill="#2B7495"/>
<path d="M303.571 256.032L292.157 257.801C292.388 260.186 292.751 262.557 293.246 264.905L304.652 263.135C304.156 260.789 303.795 258.417 303.571 256.032Z" fill="#2A7090"/>
<path d="M304.632 263.136L293.226 264.905C293.745 267.316 294.404 269.696 295.2 272.036L306.613 270.266C305.822 267.928 305.17 265.547 304.66 263.136" fill="#286C8B"/>
<path d="M306.585 270.266L295.199 272.035C296.086 274.654 297.136 277.218 298.346 279.713C298.464 279.942 298.576 280.179 298.694 280.388L310.101 278.612C309.989 278.383 309.871 278.146 309.759 277.937C308.544 275.447 307.493 272.885 306.613 270.266" fill="#276886"/>
<path d="M310.073 278.639L298.688 280.415C298.96 280.955 299.239 281.496 299.532 282.043L310.938 280.267C310.645 279.726 310.366 279.186 310.094 278.639" fill="#256381"/>
<path d="M309.731 277.937L298.317 279.713C298.436 279.949 298.555 280.186 298.666 280.422L310.08 278.653C309.961 278.416 309.842 278.18 309.731 277.937Z" fill="#272830"/>
<path d="M310.08 278.653L298.688 280.422C298.967 280.969 299.246 281.509 299.532 282.043L310.938 280.267C310.652 279.733 310.373 279.193 310.101 278.653" fill="#25262E"/>
<path d="M299.385 281.772L299.532 282.043L310.938 280.267C310.527 279.504 310.129 278.727 309.752 277.937L298.339 279.713C298.562 280.206 298.876 280.841 299.385 281.772Z" fill="#276886"/>
<path d="M309.731 277.937L298.317 279.713C298.436 279.949 298.555 280.186 298.666 280.422L310.08 278.653C309.961 278.416 309.842 278.18 309.731 277.937Z" fill="#276886"/>
<path d="M310.08 278.653L298.688 280.422C298.967 280.969 299.246 281.509 299.532 282.043L310.938 280.267C310.652 279.733 310.373 279.193 310.101 278.653" fill="#276886"/>
<path d="M318.835 272.582C314.866 265.047 313.082 256.611 313.673 248.172C313.788 246.6 313.996 245.035 314.294 243.486L304.38 238.178C304.234 238.968 304.108 239.752 303.982 240.535V240.636C303.885 241.237 303.815 241.838 303.745 242.439C303.745 242.54 303.745 242.635 303.71 242.736C303.606 243.648 303.515 244.553 303.452 245.437C302.628 256.604 304.791 267.787 309.731 277.91C310.108 278.693 310.505 279.47 310.917 280.24L318.835 272.582Z" fill="#43B3E6"/>
<path d="M345.359 287.417C343.988 286.64 342.698 285.736 341.508 284.716C340.113 283.568 338.676 285.209 338.676 285.209L336.443 286.182L336.548 282.947L337.622 274.797L343.901 270.333C343.901 270.333 345.631 270.563 346.378 271.522C347.124 272.481 349.168 278.808 349.168 278.808L345.359 287.417Z" fill="#EDEEF0"/>
<path d="M439.61 253.749C440.029 254.505 442.338 267.828 433.276 278.058C430.123 281.617 403.724 300.591 394.689 301.429C385.655 302.266 385.92 295.25 387.629 291.077C389.339 286.904 395.868 283.562 404.728 275.648C413.882 267.437 419.777 261.035 423.844 257.969C429.676 253.553 435.99 247.233 439.61 253.749Z" fill="#194866"/>
<path d="M399.971 297.073C399.971 297.073 399.734 301.496 392.925 301.523C391.035 301.523 387.414 300.646 384.644 299.91C371.884 296.533 344.007 288.261 344.007 288.261L350.007 277.093C350.007 277.093 376.754 282.11 382.579 283.393C388.405 284.676 401.388 284.021 399.971 297.073Z" fill="#194866"/>
<path d="M635.438 414.938H488.097V649.534H635.438V414.938Z" fill="#D1DBEA"/>
<path d="M519.839 414.938H488.097V649.534H519.839V414.938Z" fill="#B0BFDE"/>
<path d="M468.73 464.934H321.382V650.263H468.73V464.934Z" fill="#3DC7C9"/>
<path d="M353.124 464.934H321.382V650.263H353.124V464.934Z" fill="#34A9AB"/>
<path d="M302.817 557.045H155.476V651.195H302.817V557.045Z" fill="#2B99F1"/>
<path d="M187.218 557.045H155.476V651.195H187.218V557.045Z" fill="#2C7EEA"/>
<path d="M544.711 204.956C544.711 204.956 542.779 214.294 513.799 208.906C484.819 203.517 487.198 197.427 487.198 197.427L486.744 190.249L501.813 174.617L509.934 181.146L509.55 182.706C509.55 182.706 510.708 184.502 512.634 184.502C514.559 184.502 522.952 186.791 539.569 187.514C547.229 187.825 545.095 203.16 544.711 204.956Z" fill="#DFEAD1"/>
<path d="M539.688 187.717L538.676 187.669C539.624 191.193 540.017 194.836 539.841 198.473C539.841 198.473 539.192 207.967 509.71 206.003C505.339 205.742 500.984 205.264 496.664 204.571C500.501 205.989 505.971 207.488 513.77 208.94C542.75 214.342 544.683 204.99 544.683 204.99C545.094 203.16 547.348 188.021 539.688 187.717Z" fill="#B1DEB0"/>
<path d="M501.813 176.575C501.813 176.575 489.143 160.051 506.068 146.762C511.091 142.812 504.91 144.966 499.092 147.478C493.273 149.99 481.316 162.563 482.474 175.164C483.632 187.764 485.181 192.403 490.204 194.199C495.227 195.995 501.813 176.575 501.813 176.575Z" fill="white"/>
<path d="M505.803 144.75L518.939 140.078L521.646 144.75L518.549 149.058L515.074 148.336L511.984 149.774L505.803 144.75Z" fill="white"/>
<path d="M536.206 414.385C536.206 414.385 554.345 383.134 554.756 366.604C554.987 356.625 554.011 346.653 551.847 336.893L535.432 332.842L536.206 414.385Z" fill="#163F59"/>
<path d="M536.206 262.068L535.432 332.841L550.891 341.1C556.951 329.076 560.506 316.017 561.356 302.664C562.479 281.11 536.206 262.068 536.206 262.068Z" fill="#163F59"/>
<path d="M536.206 262.069L570.209 339.662L576.39 347.927L603.438 407.916L606.528 409.712C606.528 409.712 611.942 374.511 602.67 359.42C593.399 344.328 588.759 336.069 588.759 336.069L568.277 259.915L536.206 262.069Z" fill="#194866"/>
<path d="M535.049 263.149L569.436 262.433L583.737 216.091C583.737 216.091 593.009 188.074 575.233 187.73C557.457 187.386 536.981 187.345 536.981 187.345C536.981 187.345 525.003 197.406 535.049 263.149Z" fill="#DFEAD1"/>
<path d="M604.212 246.267L590.301 285.432C590.301 285.432 607.302 271.785 611.558 262.798C614.311 256.774 616.508 250.526 618.123 244.127L604.212 246.267Z" fill="white"/>
<path d="M592.541 283.629L582.885 291.887L578.63 284.345H581.337L583.269 281.11L589.06 283.264L592.541 283.629Z" fill="white"/>
<path d="M566.344 149.997C566.344 149.997 548.575 166.156 550.536 171.909C551.917 175.848 552.699 179.96 552.859 184.117C552.859 185.913 550.927 193.821 552.468 193.456C554.01 193.091 564.063 189.864 565.221 187.379C566.379 184.894 568.312 177.317 568.312 177.317C568.312 177.317 583.157 170.2 580.116 159.761C579.188 156.722 567.893 149.274 566.344 149.997Z" fill="white"/>
<g clip-path="url(#clip0)">
<path d="M582.042 158.557C580.979 153.204 573.537 148.239 565.031 148.549C565.031 148.549 564.295 149.713 565.113 151.885C565.113 151.885 570.838 150.876 574.845 154.988C579.016 159.333 573.864 158.79 573.946 160.729C574.027 162.358 574.191 163.832 574.191 163.832L572.637 166.858L573.7 168.022C573.7 168.022 576.726 165.927 576.644 167.246C576.481 168.798 574.354 170.504 574.109 170.737C573.864 170.97 573.373 171.435 573.455 171.59C573.537 171.746 571.819 172.987 569.775 175.78C570.347 176.245 571.737 176.09 573.537 174.771C577.626 171.823 583.269 165.074 582.042 158.557Z" fill="#163F59"/>
</g>
<path d="M554.15 193.861C554.15 193.861 538.565 219.865 542.988 248.638C543.329 250.907 546.12 252.527 546.12 252.527L549.957 249.286C549.957 249.286 549.65 216.719 554.15 193.861Z" fill="#4F9D3A"/>
<path d="M554.7 193.173L555.551 198.919L565.73 189.58V188.149L554.7 193.173Z" fill="#B1DEB0"/>
<path d="M551.499 189.465L549.713 196.934L554.234 193.172L551.499 189.465Z" fill="#B1DEB0"/>
<path d="M508.754 191.221L511.119 186.393L511.943 184.367C510.959 184.087 510.109 183.479 509.543 182.652L508.517 186.576L506.424 190.971L501.701 195.84L508.754 191.221Z" fill="#B1DEB0"/>
<path d="M581.42 214.652L601.506 244.471L604.212 244.829L603.438 247.348L617.998 246.268L621.214 234.052L593.008 193.821C593.008 193.821 584.218 186.089 569.826 188.074C559.389 189.506 579.872 212.14 581.42 214.652Z" fill="#DFEAD1"/>
<path d="M616.811 238.475C616.811 238.475 607.819 242.655 603.047 244.674L604.226 244.829L603.451 247.348L608.482 246.929L615.535 245.315L615.918 242.432H613.735L616.811 238.475Z" fill="#B1DEB0"/>
<path d="M540.769 404.675L541.934 407.247L542.436 410.083L541.934 414.493L539.443 414.641L537.608 414.101L536.325 414.824C536.325 414.824 529.216 415.587 526.558 415.459C522.197 415.236 519.846 414.608 519.065 413.723C518.632 413.23 520.732 412.501 521.416 412.46C525.323 412.204 531.699 410.178 531.699 410.178C531.699 410.178 534.657 408.004 535.188 406.957C535.701 405.905 536.112 404.808 536.415 403.682L540.769 404.675Z" fill="#163F59"/>
<path d="M606.11 404.675L607.268 407.248L607.77 410.084L607.268 414.493L604.777 414.642L602.949 414.101L601.659 414.824C601.659 414.824 594.557 415.587 591.926 415.459C587.566 415.236 585.222 414.608 584.441 413.723C584.001 413.23 586.101 412.501 586.785 412.461C590.699 412.204 597.04 410.144 597.04 410.144C597.04 410.144 599.998 407.97 600.528 406.923C601.042 405.871 601.453 404.775 601.756 403.648L606.11 404.675Z" fill="#194866"/>
<path d="M657.121 564.209H513.261L530.227 651.708H674.088L657.121 564.209Z" fill="#F1F0F6"/>
<path d="M658.872 573.231H515.012L513.261 564.209H657.121L658.872 573.231Z" fill="#CDD5D7"/>
<path d="M517.14 568.625H519.846" stroke="#879BA6" stroke-width="4.57"/>
<path d="M522.414 568.625H525.121" stroke="#879BA6" stroke-width="4.57"/>
<path d="M527.688 568.625H530.395" stroke="#879BA6" stroke-width="4.57"/>
<path d="M669.393 643.112H575.902L564.063 582.056" stroke="#B0D9EF" stroke-width="1.52" stroke-miterlimit="10"/>
<path d="M546.88 610.187C543.46 610.136 540.15 609.01 537.448 606.98L544.955 598.026H557.84C558.078 599.498 558.001 601.002 557.612 602.444C557.223 603.885 556.531 605.234 555.58 606.406C554.518 607.63 553.185 608.607 551.678 609.262C550.171 609.916 548.531 610.233 546.88 610.187Z" fill="#4C9937"/>
<path d="M545.01 596.061L542.743 584.393C549.406 584.791 555.601 589.727 557.394 596.088L545.01 596.061Z" fill="#3994C4"/>
<path d="M542.074 581.691C550.704 582.083 558.817 588.917 560.457 597.29C562.131 605.919 556.271 612.908 547.348 612.908C543.184 612.833 539.159 611.443 535.886 608.951" stroke="#D9E1E4" stroke-width="3.05"/>
<path d="M533.632 606.622C530.966 604.001 529.148 600.686 528.399 597.08C527.988 595.264 527.981 593.384 528.381 591.565C528.78 589.746 529.576 588.03 530.716 586.533C531.735 585.283 532.999 584.241 534.435 583.465C535.872 582.69 537.453 582.197 539.087 582.016L541.878 596.513L533.632 606.622Z" fill="#B6C2C9"/>
<path d="M538.237 583.197L540.769 596.243L533.583 605.022C531.5 602.716 530.076 599.922 529.453 596.919C529.067 595.247 529.054 593.515 529.415 591.838C529.776 590.161 530.503 588.578 531.546 587.195C533.214 585.142 535.584 583.734 538.23 583.225L538.237 583.197ZM539.946 580.922C531.246 581.516 525.665 588.62 527.347 597.297C528.223 601.489 530.456 605.302 533.723 608.182L543.029 596.811L539.946 580.922Z" fill="#B6C2C9"/>
<path d="M536.548 621.174H543.643" stroke="#F95830" stroke-width="3.05"/>
<path d="M561.991 621.174H546.922" stroke="#A5B6BE" stroke-width="3.05"/>
<path d="M537.65 626.839H544.738" stroke="#39CBFF" stroke-width="3.05"/>
<path d="M563.087 626.839H548.018" stroke="#A5B6BE" stroke-width="3.05"/>
<path d="M538.746 632.498H545.834" stroke="#D8E5ED" stroke-width="3.05"/>
<path d="M564.182 632.498H549.113" stroke="#A5B6BE" stroke-width="3.05"/>
<path d="M565.138 587.58H658.81" stroke="#D8E5ED" stroke-width="1.52" stroke-miterlimit="10"/>
<path d="M566.714 595.724H660.386" stroke="#D8E5ED" stroke-width="1.52" stroke-miterlimit="10"/>
<path d="M568.291 603.867H661.963" stroke="#D8E5ED" stroke-width="1.52" stroke-miterlimit="10"/>
<path d="M569.874 612.004H663.539" stroke="#D8E5ED" stroke-width="1.52" stroke-miterlimit="10"/>
<path d="M571.451 620.147H665.123" stroke="#D8E5ED" stroke-width="1.52" stroke-miterlimit="10"/>
<path d="M573.027 628.291H666.7" stroke="#D8E5ED" stroke-width="1.52" stroke-miterlimit="10"/>
<path d="M574.604 636.428H668.277" stroke="#D8E5ED" stroke-width="1.52" stroke-miterlimit="10"/>
<path d="M626.655 643.221L627.29 646.496" stroke="#D8E5ED" stroke-width="1.52" stroke-miterlimit="10"/>
<path d="M618.877 643.221L619.512 646.496" stroke="#D8E5ED" stroke-width="1.52" stroke-miterlimit="10"/>
<path d="M611.104 643.221L611.739 646.496" stroke="#D8E5ED" stroke-width="1.52" stroke-miterlimit="10"/>
<path d="M603.326 643.221L603.961 646.496" stroke="#D8E5ED" stroke-width="1.52" stroke-miterlimit="10"/>
<path d="M595.555 643.221L596.189 646.496" stroke="#D8E5ED" stroke-width="1.52" stroke-miterlimit="10"/>
<path d="M587.775 643.221L588.41 646.496" stroke="#D8E5ED" stroke-width="1.52" stroke-miterlimit="10"/>
<path d="M580.004 643.221L580.639 646.496" stroke="#D8E5ED" stroke-width="1.52" stroke-miterlimit="10"/>
<path d="M665.527 643.221L666.162 646.496" stroke="#D8E5ED" stroke-width="1.52" stroke-miterlimit="10"/>
<path d="M657.756 643.221L658.391 646.496" stroke="#D8E5ED" stroke-width="1.52" stroke-miterlimit="10"/>
<path d="M649.978 643.221L650.612 646.496" stroke="#D8E5ED" stroke-width="1.52" stroke-miterlimit="10"/>
<path d="M642.199 643.221L642.834 646.496" stroke="#D8E5ED" stroke-width="1.52" stroke-miterlimit="10"/>
<path d="M634.427 643.221L635.062 646.496" stroke="#D8E5ED" stroke-width="1.52" stroke-miterlimit="10"/>
<path d="M579.613 635.266L612.256 612.585L636.59 619.567L654.672 600.653" stroke="#4F9D3A" stroke-width="3.05" stroke-miterlimit="10"/>
<path d="M577.583 624.8L595.631 614.334L617.369 627.413L634.79 604.738L655.342 611.714" stroke="#3994C4" stroke-width="3.05" stroke-miterlimit="10"/>
</g>
<defs>
<linearGradient id="paint0_linear" x1="794.965" y1="80.2084" x2="-105.762" y2="177.679" gradientUnits="userSpaceOnUse">
<stop stop-color="#3D852A"/>
<stop offset="1" stop-color="#4F9D3A"/>
</linearGradient>
<clipPath id="clip0">
<rect width="17.5016" height="27.5412" fill="white" transform="matrix(-1 0 0 1 582.204 148.552)"/>
</clipPath>
</defs>
</svg>
