<svg width="647" height="469" viewBox="0 0 647 469" fill="none" xmlns="http://www.w3.org/2000/svg">
<path d="M328 468C504.179 468 647 446.957 647 421C647 395.043 504.179 374 328 374C151.821 374 9 395.043 9 421C9 446.957 151.821 468 328 468Z" fill="#1D3F14" fill-opacity="0.1"/>
<path d="M532.193 408.856L525.899 411.696L520.122 409.891L516.824 391.993L527.899 391.739L532.193 408.856Z" fill="#593446"/>
<path d="M579.732 404.377L581.772 416.702L567.769 418.361L566.481 401.615L579.732 404.377Z" fill="#593446"/>
<path d="M531.666 417.366L522.172 417.551L522.114 414.624L518.035 417.551L494.07 418.029C494.07 418.029 494.412 414.126 510.502 413.15C514.639 412.916 517.42 407.226 517.42 407.226C517.42 407.226 519.45 405.333 522.631 409.607C523.46 410.72 532.115 408.378 532.115 408.378C532.115 408.378 533.052 414.233 531.666 417.366Z" fill="#081832"/>
<path d="M581.684 424.646L572.18 425.066L572.073 422.138L568.043 425.251L544.068 426.324C544.068 426.324 544.332 422.323 560.432 420.977C564.569 420.625 567.262 414.799 567.262 414.799C567.262 414.799 569.214 412.848 572.522 417.083C573.371 418.186 581.987 415.609 581.987 415.609C581.987 415.609 583.021 421.435 581.684 424.646Z" fill="#081832"/>
<path d="M574.375 171.589C565.108 168.063 555.615 165.158 545.961 162.894C531.608 159.596 516.688 158.181 513.995 159.157C508.502 161.177 508.677 189.321 511.068 212.83C511.962 221.859 512.095 230.948 511.468 239.999C511.468 239.999 555.377 263.801 558.666 263.518C561.954 263.235 570.589 254.462 569.819 247.269C569.048 240.077 573.995 196.845 579.713 190.385C585.431 183.925 582.747 173.18 574.375 171.589Z" fill="#DFEAD1"/>
<path d="M518.865 404.094L533.287 404.592L529.784 246.098L503.867 238.115C503.867 238.115 503.965 339.783 518.865 404.094Z" fill="#163F59"/>
<path d="M558.51 246.235L564.803 327.799L585.636 412.194L565.028 412.701L518.796 243.385L538.741 246.293L558.51 246.235Z" fill="#194866"/>
<path d="M542.712 249.143C542.712 249.143 537.179 247.279 535.286 246.83C523.235 243.902 508.14 232.192 508.14 232.192C508.14 232.192 506.891 242.634 505.389 258.999L537.589 283.026L542.712 249.143Z" fill="#194866"/>
<path d="M560.685 141.122C560.685 141.122 555.719 151.125 560.071 161.675C564.423 172.224 534.847 162.309 534.847 162.309C534.847 162.309 544.849 153.721 530.046 145.855C522.162 141.669 558.607 136.75 560.685 141.122Z" fill="white"/>
<path d="M523.362 241.092C521.567 240.38 520.181 238.828 518.327 238.164C515.156 200.837 529.061 185.34 543.229 160.201L547.337 162.153C535.501 184.061 520.972 203.433 523.362 241.092Z" fill="#B1DEB0"/>
<path d="M559.7 131.451C559.465 123.83 547.903 111.826 544.009 114.247C542.451 115.17 541.08 116.378 539.97 117.809C538.887 119.409 537.813 120.99 536.75 122.532C536.5 122.881 536.29 123.258 536.125 123.654C536.103 123.678 536.084 123.704 536.067 123.732L527.041 143.25C526.974 143.393 526.936 143.547 526.929 143.705C526.922 143.862 526.947 144.02 527.001 144.168C527.055 144.316 527.139 144.451 527.246 144.567C527.353 144.682 527.483 144.775 527.626 144.841L540.458 150.774C541.014 151.037 550.947 148.207 552.752 147.28C554.879 146.363 556.87 146.012 558.158 145.036C559.846 143.796 559.904 138.283 559.7 131.451Z" fill="white"/>
<path d="M543.932 121L544.859 131.178L545.786 141.357L536.506 137.073L528.524 131.042L535.579 126.894L543.932 121Z" fill="white"/>
<path d="M559.046 146.158L566.432 130.885C566.432 130.885 564.686 124.181 556.206 118.521C547.727 112.861 543.883 112.958 543.883 112.958L538.809 113.554L538.926 118.862L549.844 122.834L544.79 128.816L543.531 137.316L546.01 138.624V138.858C546.01 138.858 547.337 134.252 550.674 133.393C554.011 132.535 555.045 136.077 552.782 138.38C550.518 140.683 550.44 141.708 550.44 141.708L552.684 146.119L559.046 146.158Z" fill="#194866"/>
<path d="M545.229 158.571L543.141 163.07L536.447 167.706L533.071 160.23L537.892 154.726L545.229 158.571Z" fill="#B1DEB0"/>
<path d="M561.388 161.031L562.14 167.305L548.947 171.209L543.142 163.07L545.23 158.571L561.388 161.031Z" fill="#B1DEB0"/>
<path d="M581.781 172.058L561.797 165.734C561.797 165.734 539.462 207.161 548.195 227.039C556.928 246.918 554.489 254.637 552.469 265.801C550.449 276.966 553.689 288.93 553.689 288.93L579.137 264.757C579.137 264.757 583.245 257.448 580.981 251.358C578.717 245.269 571.526 231.08 573.399 213.416C575.273 195.753 579.01 175.308 581.781 172.058Z" fill="#163F59"/>
<path d="M507.858 271.657C507.858 271.657 514.688 206.019 516.806 196.426C518.757 187.506 533.072 160.23 533.072 160.23L513.098 157.225C513.098 157.225 500.296 188.794 501.847 197.236C502.316 199.783 503.077 218.949 504.267 226.678C504.921 230.914 495.485 255.877 498.53 259.175C502.033 262.942 509.107 272.057 507.858 271.657Z" fill="#163F59"/>
<path d="M514.141 206.126C516.002 199.891 518.23 193.771 520.815 187.799C525.47 176.742 533.1 160.23 533.1 160.23L520.484 158.962L513.985 170.994L518.347 174.371L511.351 181.612C511.76 189.834 512.692 198.022 514.141 206.126Z" fill="#194866"/>
<path d="M574.131 169.989L567.838 186.228L559.309 192.083L562.461 200.808C562.461 200.808 554.821 209.386 553.396 239.619C553.396 240.009 540.955 214.05 553.25 186.003C557.894 175.386 561.798 165.734 561.798 165.734L574.131 169.989Z" fill="#194866"/>
<path d="M462.514 144.031L457.957 134.36L451.947 131.861L448.043 138.693L446.229 144.089L448.014 147.905C448.014 147.905 455.489 152.013 459.958 150.491C464.427 148.969 462.514 144.031 462.514 144.031Z" fill="#E9D6B8"/>
<path d="M525.168 164.446C525.168 164.446 510.16 193.313 500.208 192.151C490.45 191.019 495.143 185.057 497.28 179.465C499.417 173.873 509.712 160.552 511.029 158.63C512.619 156.2 516.718 158.318 525.168 164.446Z" fill="#163F59"/>
<path d="M501.418 179.885C501.418 179.885 505.321 187.926 500.92 192.454C496.519 196.982 485.308 189.995 474.418 176.713C467.706 168.528 461.514 159.93 455.879 150.969L462.231 143.367C462.231 143.367 501.154 174.927 501.418 179.885Z" fill="#194866"/>
<path d="M492.225 154.326C502.959 179.797 493.113 208.517 470.193 218.461C447.272 228.405 419.97 215.807 409.227 190.326C398.484 164.846 408.358 136.155 431.269 126.211C454.18 116.267 481.482 128.816 492.225 154.326Z" fill="#F4901E"/>
<path d="M495.105 150.569C505.838 176.049 495.993 204.76 473.072 214.704C450.151 224.648 422.849 212.05 412.116 186.579C401.382 161.109 411.238 132.398 434.158 122.454C457.079 112.51 484.361 125.089 495.105 150.569Z" fill="#FFC400"/>
<path d="M470.857 183.573L456.991 188.706L456.425 187.184C457.064 186.498 457.738 185.847 458.445 185.232C459.136 184.637 459.86 184.08 460.611 183.564L451.059 157.751L450.083 154.58C449.344 155.29 448.518 155.903 447.624 156.405C446.714 156.934 445.749 157.363 444.746 157.683L444.043 156.512C445.377 155.376 446.641 154.16 447.829 152.872C449.1 151.495 450.182 149.956 451.049 148.295L452.239 147.866L464.856 182.022C465.738 181.933 466.624 181.894 467.51 181.905C468.408 181.905 469.325 181.953 470.262 182.051L470.857 183.573Z" fill="#F4901E"/>
<path d="M479.083 213.767C477.546 212.856 476.101 211.797 474.77 210.605C473.248 209.278 471.599 211.171 471.599 211.171L469.101 212.303L469.218 208.556L470.418 199.119L477.453 193.957C478.504 194.098 479.48 194.578 480.234 195.323C481.073 196.436 483.327 203.764 483.327 203.764L479.083 213.767Z" fill="white"/>
<path d="M584.718 174.8C585.187 175.669 587.773 191.098 577.625 202.945C574.092 207.063 544.507 229.03 534.389 229.996C524.27 230.962 524.563 222.843 526.475 218.012C528.388 213.182 535.677 209.308 545.571 200.144C555.836 190.639 562.432 183.222 567.038 179.65C573.556 174.566 580.63 167.247 584.718 174.8Z" fill="#194866"/>
<path d="M540.272 224.951C540.272 224.951 540.009 230.065 532.378 230.094C530.261 230.094 526.201 229.118 523.108 228.23C508.804 224.326 477.569 214.753 477.569 214.753L484.292 201.823C484.292 201.823 514.258 207.629 520.786 209.112C527.314 210.596 541.853 209.815 540.272 224.951Z" fill="#194866"/>
<path d="M338.806 381.775C337.928 381.775 337.216 380.009 337.216 377.872V149.515C337.216 147.329 337.928 145.563 338.806 145.563C339.685 145.563 340.397 147.339 340.397 149.525V377.882C340.397 380.068 339.685 381.785 338.806 381.785V381.775Z" fill="#266F28"/>
<path d="M338.865 333.176C338.716 333.029 338.599 332.853 338.518 332.659C338.438 332.466 338.396 332.259 338.396 332.049C338.396 331.84 338.438 331.632 338.518 331.439C338.599 331.245 338.716 331.07 338.865 330.922L349.159 320.626C349.457 320.33 349.861 320.163 350.281 320.163C350.702 320.163 351.105 320.33 351.403 320.626C351.551 320.773 351.669 320.948 351.749 321.141C351.829 321.333 351.871 321.54 351.871 321.749C351.871 321.957 351.829 322.164 351.749 322.357C351.669 322.549 351.551 322.724 351.403 322.871L341.119 333.167C340.818 333.462 340.413 333.627 339.992 333.627C339.57 333.627 339.166 333.462 338.865 333.167V333.176Z" fill="#266F28"/>
<path d="M378.735 293.292C374.395 291.253 369.532 290.603 364.809 291.429C360.085 292.255 355.732 294.518 352.341 297.909C348.951 301.3 346.688 305.654 345.862 310.378C345.036 315.101 345.687 319.965 347.725 324.306C352.065 326.351 356.931 327.006 361.657 326.182C366.383 325.358 370.74 323.095 374.132 319.702C377.525 316.31 379.787 311.952 380.611 307.225C381.435 302.499 380.78 297.633 378.735 293.292Z" fill="#266F28"/>
<path d="M347.725 324.306C352.065 326.35 356.93 327.006 361.656 326.182C366.383 325.358 370.739 323.095 374.132 319.702C377.524 316.31 379.787 311.952 380.61 307.225C381.434 302.498 380.779 297.633 378.734 293.292" fill="#318633"/>
<path d="M338.65 333.176C338.799 333.028 338.917 332.853 338.997 332.659C339.077 332.466 339.119 332.259 339.119 332.049C339.119 331.84 339.077 331.632 338.997 331.439C338.917 331.245 338.799 331.07 338.65 330.922L328.356 320.626C328.058 320.33 327.655 320.163 327.234 320.163C326.813 320.163 326.41 320.33 326.112 320.626C325.964 320.773 325.846 320.948 325.766 321.141C325.686 321.333 325.645 321.54 325.645 321.749C325.645 321.957 325.686 322.164 325.766 322.357C325.846 322.549 325.964 322.724 326.112 322.871L336.396 333.176C336.696 333.471 337.099 333.636 337.519 333.636C337.938 333.636 338.341 333.471 338.641 333.176H338.65Z" fill="#266F28"/>
<path d="M298.781 293.292C303.121 291.25 307.986 290.597 312.711 291.422C317.436 292.246 321.792 294.509 325.184 297.9C328.577 301.292 330.84 305.648 331.666 310.373C332.492 315.099 331.841 319.964 329.8 324.306C325.46 326.348 320.595 327.001 315.87 326.176C311.145 325.352 306.789 323.089 303.397 319.697C300.004 316.306 297.741 311.95 296.915 307.225C296.089 302.499 296.74 297.634 298.781 293.292Z" fill="#266F28"/>
<path d="M329.8 324.306C325.46 326.348 320.595 327.001 315.87 326.176C311.145 325.351 306.789 323.089 303.397 319.697C300.004 316.306 297.741 311.95 296.915 307.224C296.089 302.499 296.74 297.634 298.781 293.292" fill="#318633"/>
<path d="M338.865 292.423C338.716 292.276 338.599 292.1 338.518 291.907C338.438 291.713 338.396 291.506 338.396 291.296C338.396 291.087 338.438 290.879 338.518 290.686C338.599 290.493 338.716 290.317 338.865 290.169L349.159 279.883C349.457 279.587 349.861 279.42 350.281 279.42C350.702 279.42 351.105 279.587 351.403 279.883C351.551 280.03 351.669 280.205 351.749 280.398C351.829 280.59 351.871 280.797 351.871 281.006C351.871 281.214 351.829 281.421 351.749 281.613C351.669 281.806 351.551 281.981 351.403 282.128L341.119 292.423C340.971 292.572 340.795 292.69 340.602 292.77C340.408 292.85 340.201 292.892 339.992 292.892C339.782 292.892 339.575 292.85 339.381 292.77C339.188 292.69 339.012 292.572 338.865 292.423Z" fill="#266F28"/>
<path d="M378.735 252.549C374.395 250.51 369.532 249.86 364.809 250.686C360.085 251.512 355.732 253.775 352.341 257.166C348.951 260.557 346.688 264.911 345.862 269.635C345.036 274.358 345.687 279.222 347.725 283.563C352.065 285.601 356.928 286.252 361.651 285.426C366.375 284.6 370.728 282.337 374.119 278.946C377.509 275.555 379.772 271.201 380.598 266.477C381.424 261.753 380.773 256.89 378.735 252.549Z" fill="#266F28"/>
<path d="M347.725 283.562C352.065 285.601 356.928 286.252 361.651 285.426C366.374 284.599 370.728 282.337 374.118 278.946C377.509 275.555 379.771 271.201 380.597 266.477C381.423 261.753 380.773 256.889 378.734 252.549" fill="#318633"/>
<path d="M338.65 292.423C338.799 292.276 338.917 292.1 338.997 291.907C339.077 291.713 339.119 291.506 339.119 291.296C339.119 291.087 339.077 290.879 338.997 290.686C338.917 290.493 338.799 290.317 338.65 290.169L328.356 279.883C328.058 279.587 327.655 279.42 327.234 279.42C326.813 279.42 326.41 279.587 326.112 279.883C325.964 280.03 325.846 280.205 325.766 280.398C325.686 280.59 325.645 280.797 325.645 281.006C325.645 281.214 325.686 281.421 325.766 281.613C325.846 281.806 325.964 281.981 326.112 282.128L336.396 292.423C336.543 292.572 336.718 292.689 336.911 292.769C337.103 292.85 337.31 292.891 337.519 292.891C337.727 292.891 337.934 292.85 338.126 292.769C338.319 292.689 338.494 292.572 338.641 292.423H338.65Z" fill="#266F28"/>
<path d="M298.781 252.549C303.121 250.507 307.986 249.854 312.711 250.678C317.436 251.503 321.792 253.766 325.184 257.157C328.577 260.549 330.84 264.904 331.666 269.63C332.492 274.356 331.841 279.221 329.8 283.563C325.46 285.605 320.595 286.258 315.87 285.433C311.145 284.608 306.789 282.346 303.397 278.954C300.004 275.563 297.741 271.207 296.915 266.481C296.089 261.756 296.74 256.891 298.781 252.549Z" fill="#266F28"/>
<path d="M329.8 283.562C325.46 285.604 320.595 286.258 315.87 285.433C311.145 284.608 306.789 282.346 303.397 278.954C300.004 275.563 297.741 271.207 296.915 266.481C296.089 261.756 296.74 256.89 298.781 252.549" fill="#318633"/>
<path d="M338.865 251.68C338.716 251.532 338.599 251.357 338.518 251.163C338.438 250.97 338.396 250.763 338.396 250.553C338.396 250.344 338.438 250.136 338.518 249.943C338.599 249.749 338.716 249.574 338.865 249.426L349.159 239.091C349.457 238.795 349.861 238.628 350.281 238.628C350.702 238.628 351.105 238.795 351.403 239.091C351.551 239.238 351.669 239.413 351.749 239.606C351.829 239.798 351.871 240.005 351.871 240.214C351.871 240.422 351.829 240.629 351.749 240.821C351.669 241.014 351.551 241.189 351.403 241.336L341.119 251.68C340.818 251.975 340.413 252.141 339.992 252.141C339.57 252.141 339.166 251.975 338.865 251.68Z" fill="#266F28"/>
<path d="M378.735 211.767C374.395 209.728 369.532 209.077 364.809 209.904C360.085 210.73 355.732 212.992 352.341 216.383C348.951 219.774 346.688 224.128 345.862 228.852C345.036 233.576 345.687 238.44 347.725 242.78C352.065 244.819 356.928 245.47 361.651 244.643C366.375 243.817 370.728 241.554 374.119 238.164C377.509 234.773 379.772 230.419 380.598 225.695C381.424 220.971 380.773 216.107 378.735 211.767Z" fill="#266F28"/>
<path d="M347.725 242.819C352.069 244.866 356.939 245.521 361.669 244.694C366.399 243.868 370.759 241.601 374.152 238.203C377.546 234.805 379.807 230.442 380.627 225.71C381.447 220.978 380.786 216.109 378.734 211.767" fill="#318633"/>
<path d="M338.65 251.68C338.799 251.532 338.917 251.357 338.997 251.163C339.077 250.97 339.119 250.763 339.119 250.553C339.119 250.344 339.077 250.136 338.997 249.943C338.917 249.749 338.799 249.574 338.65 249.426L328.356 239.091C328.058 238.795 327.655 238.628 327.234 238.628C326.813 238.628 326.41 238.795 326.112 239.091C325.964 239.238 325.846 239.413 325.766 239.606C325.686 239.798 325.645 240.005 325.645 240.214C325.645 240.422 325.686 240.629 325.766 240.821C325.846 241.014 325.964 241.189 326.112 241.336L336.396 251.68C336.696 251.975 337.099 252.14 337.519 252.14C337.938 252.14 338.341 251.975 338.641 251.68H338.65Z" fill="#266F28"/>
<path d="M298.781 211.767C303.121 209.725 307.986 209.071 312.711 209.896C317.436 210.721 321.792 212.983 325.184 216.375C328.577 219.767 330.84 224.122 331.666 228.848C332.492 233.573 331.841 238.439 329.8 242.78C325.46 244.822 320.595 245.476 315.87 244.651C311.145 243.826 306.789 241.564 303.397 238.172C300.004 234.78 297.741 230.425 296.915 225.699C296.089 220.974 296.74 216.108 298.781 211.767Z" fill="#266F28"/>
<path d="M329.8 242.819C325.456 244.869 320.585 245.527 315.852 244.702C311.12 243.877 306.758 241.61 303.363 238.212C299.968 234.813 297.705 230.448 296.885 225.715C296.065 220.981 296.727 216.11 298.781 211.767" fill="#318633"/>
<path d="M338.865 210.928C338.717 210.781 338.599 210.606 338.519 210.413C338.439 210.22 338.397 210.014 338.397 209.805C338.397 209.597 338.439 209.39 338.519 209.197C338.599 209.005 338.717 208.83 338.865 208.683L349.159 198.387C349.458 198.093 349.862 197.928 350.281 197.928C350.701 197.928 351.104 198.093 351.403 198.387C351.552 198.535 351.67 198.711 351.75 198.904C351.83 199.098 351.872 199.305 351.872 199.515C351.872 199.724 351.83 199.931 351.75 200.125C351.67 200.318 351.552 200.494 351.403 200.642L341.119 210.928C340.971 211.076 340.795 211.194 340.602 211.274C340.409 211.354 340.201 211.396 339.992 211.396C339.782 211.396 339.575 211.354 339.382 211.274C339.188 211.194 339.013 211.076 338.865 210.928Z" fill="#266F28"/>
<path d="M378.735 171.053C374.394 169.012 369.529 168.361 364.804 169.187C360.079 170.013 355.724 172.277 352.333 175.669C348.942 179.062 346.679 183.419 345.855 188.144C345.03 192.87 345.683 197.735 347.725 202.076C352.066 204.117 356.931 204.769 361.656 203.942C366.381 203.116 370.736 200.852 374.127 197.46C377.519 194.067 379.781 189.711 380.605 184.985C381.43 180.259 380.777 175.394 378.735 171.053Z" fill="#266F28"/>
<path d="M347.725 202.076C352.066 204.117 356.93 204.768 361.655 203.942C366.38 203.116 370.736 200.852 374.127 197.46C377.518 194.067 379.78 189.71 380.605 184.985C381.429 180.259 380.776 175.394 378.734 171.053" fill="#318633"/>
<path d="M338.65 210.927C338.798 210.781 338.916 210.606 338.996 210.413C339.076 210.22 339.118 210.014 339.118 209.805C339.118 209.597 339.076 209.39 338.996 209.197C338.916 209.005 338.798 208.83 338.65 208.683L328.356 198.387C328.057 198.093 327.654 197.928 327.234 197.928C326.814 197.928 326.411 198.093 326.112 198.387C325.963 198.535 325.846 198.711 325.765 198.904C325.685 199.098 325.644 199.305 325.644 199.515C325.644 199.724 325.685 199.931 325.765 200.125C325.846 200.318 325.963 200.494 326.112 200.642L336.396 210.927C336.543 211.076 336.718 211.193 336.911 211.273C337.103 211.354 337.31 211.395 337.518 211.395C337.727 211.395 337.934 211.354 338.126 211.273C338.319 211.193 338.494 211.076 338.641 210.927H338.65Z" fill="#266F28"/>
<path d="M298.781 171.053C303.122 169.015 307.986 168.365 312.71 169.192C317.434 170.019 321.788 172.283 325.179 175.674C328.571 179.066 330.834 183.421 331.661 188.145C332.488 192.87 331.838 197.734 329.8 202.076C325.459 204.114 320.595 204.764 315.871 203.937C311.147 203.11 306.793 200.846 303.402 197.455C300.011 194.063 297.747 189.708 296.921 184.984C296.094 180.259 296.743 175.395 298.781 171.053Z" fill="#266F28"/>
<path d="M329.8 202.076C325.459 204.114 320.595 204.764 315.871 203.937C311.147 203.11 306.793 200.846 303.402 197.455C300.011 194.063 297.747 189.708 296.921 184.984C296.094 180.259 296.743 175.395 298.781 171.053" fill="#318633"/>
<path d="M366.538 416.39C366.458 417.09 366.136 417.74 365.629 418.228C365.121 418.716 364.459 419.012 363.757 419.064H313.846C313.145 419.011 312.484 418.715 311.978 418.227C311.472 417.739 311.153 417.089 311.075 416.39C309.494 404.218 307.92 392.058 306.352 379.912C306.311 379.56 306.348 379.203 306.461 378.867C306.574 378.531 306.759 378.225 307.005 377.969C307.25 377.713 307.549 377.515 307.88 377.389C308.211 377.262 308.565 377.211 308.919 377.238H368.684C369.038 377.209 369.394 377.26 369.726 377.386C370.058 377.511 370.358 377.709 370.605 377.965C370.851 378.221 371.038 378.528 371.151 378.865C371.265 379.201 371.302 379.559 371.26 379.912C369.679 392.078 368.105 404.237 366.538 416.39Z" fill="#C4D1E1"/>
<path d="M368.684 377.238H308.919C308.565 377.211 308.211 377.262 307.88 377.389C307.549 377.515 307.25 377.713 307.005 377.969C306.759 378.225 306.574 378.531 306.461 378.867C306.348 379.203 306.311 379.56 306.352 379.911C306.665 382.377 306.99 384.849 307.328 387.328H370.314L371.289 379.911C371.332 379.556 371.294 379.196 371.179 378.857C371.064 378.518 370.875 378.209 370.625 377.953C370.375 377.696 370.071 377.499 369.736 377.375C369.4 377.252 369.041 377.204 368.684 377.238Z" fill="#B0BFDE"/>
<path d="M371.378 360.286H306.245C304.494 360.286 303.074 361.706 303.074 363.458V377.237C303.074 378.989 304.494 380.409 306.245 380.409H371.378C373.129 380.409 374.549 378.989 374.549 377.237V363.458C374.549 361.706 373.129 360.286 371.378 360.286Z" fill="#C4D1E1"/>
<path d="M396.367 103.063C396.902 113.787 394.245 124.429 388.733 133.643C383.22 142.856 375.099 150.228 365.397 154.826C355.696 159.424 344.848 161.042 334.227 159.474C323.606 157.906 313.689 153.224 305.729 146.019C297.769 138.814 292.124 129.41 289.507 118.996C286.891 108.583 287.421 97.627 291.031 87.5148C294.641 77.4025 301.167 68.5878 309.786 62.1855C318.405 55.7831 328.728 52.0806 339.451 51.5461C353.829 50.8294 367.903 55.8544 378.577 65.5157C389.251 75.1769 395.65 88.6831 396.367 103.063Z" fill="#F4901E"/>
<path d="M392.717 102.604C393.252 113.328 390.595 123.97 385.082 133.184C379.57 142.398 371.449 149.77 361.747 154.368C352.045 158.965 341.198 160.583 330.577 159.015C319.956 157.447 310.038 152.765 302.078 145.56C294.118 138.355 288.473 128.951 285.857 118.538C283.241 108.124 283.771 97.1683 287.381 87.056C290.99 76.9438 297.517 68.1291 306.136 61.7267C314.754 55.3244 325.078 51.6218 335.801 51.0874C350.179 50.3707 364.253 55.3957 374.927 65.0569C385.6 74.7182 392 88.2243 392.717 102.604Z" fill="#FFC400"/>
<path d="M346.095 126.865H328.356V125.108C329.357 124.667 330.379 124.276 331.419 123.937C332.454 123.599 333.498 123.306 334.552 123.059V93.2162L334.796 89.6348C333.662 90.0921 332.48 90.4195 331.273 90.6106C330.027 90.7959 328.766 90.8677 327.507 90.8253L327.204 89.3615C329.17 88.7196 331.096 87.9603 332.971 87.0877C334.953 86.1811 336.812 85.0268 338.503 83.6526H340.026V123.088C341.001 123.332 342.046 123.625 343.051 123.966C344.056 124.308 345.08 124.708 346.095 125.157V126.865Z" fill="#F4901E"/>
<path d="M239.249 89.0005L235.493 83.9259C234.207 82.1348 232.657 80.5489 230.897 79.2222C227.969 77.0264 224.915 77.9535 222.29 80.3542C219.666 82.7549 219.266 84.6676 219.266 84.6676C219.266 84.6676 220.807 88.942 224.554 88.6687C228.301 88.3955 236.263 92.7089 236.917 91.3231C237.482 90.3616 238.286 89.5618 239.249 89.0005Z" fill="#E9D6B8"/>
<path d="M219.87 86.4731L215.04 81.3302L210.757 76.3336L212.142 75.8359L215.675 78.9588L223.364 81.0179L222.203 82.8428L219.87 86.4731Z" fill="#E9D6B8"/>
<path d="M217.704 77.4364L215.362 72.0983L216.562 71.2395L219.822 76.0896L224.837 79.7882L222.202 82.8428L217.704 77.4364Z" fill="#E9D6B8"/>
<path d="M218.973 70.4294L220.553 74.7916L221.217 77.8462L223.822 80.1004L226.681 78.3634L223.803 76.031L220.719 70.6344L218.973 70.4294Z" fill="#E9D6B8"/>
<path d="M223.578 69.8049L225.11 78.0609L227.062 79.5247L229.081 78.4512L227.032 75.0161L224.886 70.4783L223.578 69.8049Z" fill="#E9D6B8"/>
<path d="M238.82 93.8507C236.341 91.0402 232.34 91.3427 232.34 91.3427C232.34 91.3427 222.358 91.8502 220.826 90.2888C219.294 88.7273 215.118 87.5172 215.118 87.5172C215.118 87.5172 213.635 86.1705 217.665 85.9168C219.336 85.8297 221.011 85.9975 222.632 86.4145C222.632 86.4145 228.203 84.1114 229.95 84.4627C233.531 85.1166 239.424 92.0551 239.424 92.0551C239.424 92.0551 239.132 94.2118 238.82 93.8507Z" fill="#E9D6B8"/>
<path d="M186.031 158.532C186.031 158.532 188.304 169.872 222.378 163.324C256.452 156.776 253.603 149.369 253.603 149.369L254.13 140.635L236.419 121.654L226.876 129.587L227.335 131.481C226.936 132.098 226.4 132.615 225.769 132.992C225.137 133.37 224.428 133.597 223.695 133.657C221.422 133.657 211.43 136.711 191.905 137.56C182.928 137.99 185.582 156.346 186.031 158.532Z" fill="#DFEAD1"/>
<path d="M191.983 137.6H193.135C192.02 141.868 191.557 146.28 191.759 150.686C191.759 150.686 192.53 162.211 227.179 159.83C232.318 159.511 237.438 158.932 242.518 158.093C235.981 160.43 229.257 162.203 222.417 163.392C188.344 169.94 186.07 158.601 186.07 158.601C185.582 156.346 182.928 137.99 191.983 137.6Z" fill="#B1DEB0"/>
<path d="M236.458 124.064C236.458 124.064 251.319 103.99 231.453 87.8393C225.598 83.0477 232.819 85.6631 239.63 88.7176C246.441 91.7721 260.531 107.035 259.145 122.317C257.759 137.6 255.964 143.26 250.061 145.436C244.157 147.612 236.458 124.064 236.458 124.064Z" fill="white"/>
<path d="M228.301 141.845L225.52 135.989L224.544 133.569C225.698 133.227 226.696 132.492 227.364 131.49L228.564 136.253L231.062 141.591L236.624 147.446L228.301 141.845Z" fill="#B1DEB0"/>
<path d="M197.389 229.216L156.963 228.337L140.16 172.058C140.16 172.058 129.251 138.019 150.152 137.6C171.053 137.18 195.115 137.17 195.115 137.17C195.115 137.17 209.195 149.369 197.389 229.216Z" fill="#DFEAD1"/>
<path d="M160.602 94.9144C160.602 94.9144 181.864 114.676 179.22 121.537C179.103 121.829 175.756 125.05 175.385 128.299C175.034 131.354 176.498 133.179 176.498 134.379C176.498 134.77 177.561 137.404 177.669 138.175C178.176 141.698 176.381 144.606 174.888 144.245C171.194 143.048 167.571 141.64 164.037 140.03C163.12 139.532 162.251 139.444 162.017 137.98C161.529 134.877 159.89 129.578 158.329 128.075C153.743 123.674 140.882 119.429 144.453 106.771C145.498 103.083 158.807 94.0361 160.602 94.9144Z" fill="white"/>
<path d="M174.937 145.055C174.937 145.055 193.252 176.635 188.08 211.591C187.67 214.343 184.392 216.314 184.392 216.314L179.884 212.411C179.884 212.411 180.215 172.819 174.937 145.055Z" fill="#163F59"/>
<path d="M174.283 144.216L173.287 151.194L160.446 140.527L161.939 137.922L174.283 144.216Z" fill="#B1DEB0"/>
<path d="M178.049 139.717L177.679 137.365L180.03 141.396L180.147 148.793L175.073 144.372L178.049 139.717Z" fill="#B1DEB0"/>
<path d="M179.233 121.465C179.233 121.465 178.247 121.699 176.273 121.974C175.122 122.112 173.988 122.374 172.89 122.757C169.111 124.516 169.446 124.739 166.97 125.339C163.959 125.856 160.916 126.158 157.864 126.244C157.864 126.244 161.021 127.475 162.274 127.993C164.172 128.766 166.281 128.788 168.194 128.054C175.099 125.644 175.099 126.336 175.839 125.726C176.87 124.224 178.004 122.8 179.233 121.465Z" fill="#E4EEF3"/>
<path d="M168.155 104.019C169.97 105.141 171.847 106.161 173.776 107.074C174.605 107.493 175.678 107.981 175.727 108.313C175.781 109.004 175.755 109.698 175.649 110.382C175.561 110.88 175.317 112.861 173.698 111.358C172.078 109.855 168.155 104.019 168.155 104.019Z" fill="white"/>
<path d="M143.273 106.166C144.522 99.4717 153.363 93.187 163.53 93.5969C163.53 93.5969 164.438 95.09 163.442 97.8127C163.442 97.8127 156.612 96.505 151.87 101.716C146.933 107.171 153.051 106.508 152.943 108.967C152.865 111.036 152.699 112.871 152.699 112.871L154.563 116.647L153.265 118.082C153.265 118.082 149.606 115.486 149.723 117.106C149.879 119.058 152.436 121.175 152.758 121.507C153.08 121.839 153.656 122.376 153.568 122.62C153.48 122.864 155.519 124.357 157.959 127.909C157.285 128.514 155.627 128.309 153.441 126.65C148.523 122.873 141.761 114.344 143.273 106.166Z" fill="#163F59"/>
<path d="M149.84 116.618C149.535 116.863 149.282 117.166 149.095 117.51C148.908 117.853 148.79 118.229 148.748 118.618C148.664 119.403 148.895 120.19 149.391 120.804C149.887 121.419 150.606 121.812 151.391 121.896C152.176 121.98 152.962 121.749 153.577 121.253" fill="#E4EEF3"/>
<path d="M171.727 111.739C172.455 110.659 173.25 109.626 174.107 108.645C174.439 108.479 175.181 107.982 175.425 108.235C175.669 108.489 175.864 109.514 175.2 111.378C175.034 111.827 174.644 110.997 171.727 111.739Z" fill="#E4EEF3"/>
<path d="M196.335 402.981H185.924V418.849H196.335V402.981Z" fill="#593446"/>
<path d="M120.47 402.981H112.039V418.849H120.47V402.981Z" fill="#593446"/>
<path d="M186.412 423.475H194.022V421.162L197.33 423.475H216.504C216.504 423.475 216.172 420.333 203.282 419.845C199.975 419.708 197.652 415.209 197.652 415.209C197.652 415.209 196.003 413.726 193.525 417.161C192.881 418.069 185.924 416.341 185.924 416.341C185.924 416.341 185.26 420.996 186.412 423.475Z" fill="#081832"/>
<path d="M196.023 227.908L196.93 313.864L178.771 323.896C171.656 309.291 167.488 293.426 166.506 277.209C165.14 251.036 196.023 227.908 196.023 227.908Z" fill="#163F59"/>
<path d="M196.023 227.908L156.017 322.159L148.747 332.191L121.172 410.496L110.761 407.519C110.761 407.519 106.955 364.483 117.864 346.156C128.773 327.829 134.208 317.787 134.208 317.787L158.29 225.283L196.023 227.908Z" fill="#194866"/>
<path d="M184.996 411.989C181.708 395.125 174.468 365.722 174.263 354.88C173.804 334.806 176.985 320.841 176.985 320.841L196.969 313.864L197.057 411.989H184.996Z" fill="#163F59"/>
<path d="M121.592 426.373H116.449L114.83 424.744L114.127 420.772L112.488 422.401L107.111 417.034C108.087 414.458 111.785 411.657 111.785 411.657C111.785 411.657 115.483 417.795 116.576 417.62C120.792 416.917 120.909 419.132 120.909 419.132C120.909 419.132 119.367 423.934 121.592 426.373Z" fill="#081832"/>
<path d="M116.254 420.547C116.734 421.168 117.332 421.687 118.014 422.076C118.695 422.464 119.447 422.714 120.225 422.811C133.115 423.309 133.437 426.461 133.437 426.461H116.254V420.547Z" fill="#081832"/>
<path d="M174.615 195.811C185.163 220.813 175.483 249.007 152.982 258.775C130.481 268.544 103.677 256.179 93.1285 231.158C82.5805 206.136 92.2698 177.962 114.771 168.203C137.272 158.444 164.067 170.78 174.615 195.811Z" fill="#F4901E"/>
<path d="M177.444 192.122C187.982 217.134 178.312 245.327 155.802 255.086C133.291 264.845 106.496 252.481 95.9579 227.478C85.4196 202.476 95.0895 174.283 117.6 164.505C140.111 154.726 166.896 167.11 177.444 192.122Z" fill="#FFC400"/>
<path d="M153.636 224.522L140.024 229.567L139.468 228.064C140.084 227.405 140.736 226.78 141.419 226.19C142.1 225.608 142.81 225.061 143.546 224.551L134.169 199.178L133.193 196.065C132.468 196.762 131.659 197.365 130.783 197.86C129.887 198.372 128.942 198.793 127.963 199.119L127.271 197.968C128.581 196.853 129.819 195.657 130.978 194.386C132.23 193.038 133.297 191.528 134.15 189.897L135.311 189.478L147.703 222.97C148.569 222.889 149.439 222.854 150.308 222.863C151.186 222.863 152.094 222.863 153.011 222.999L153.636 224.522Z" fill="#F4901E"/>
<path d="M128.344 257.711C129.437 259.761 136.453 261.751 136.453 261.751L141.449 256.14H138.316L136.043 251.036L129.212 253.652C129.212 253.652 127.671 256.462 128.344 257.711Z" fill="white"/>
<path d="M142.883 170.311L119.259 206.526L116.078 206.965L116.986 210.02L99.8807 208.712L96.0947 193.869L129.271 145.006C129.271 145.006 139.604 135.618 156.524 138.019C168.77 139.766 144.698 167.257 142.883 170.311Z" fill="#DFEAD1"/>
<path d="M116.078 208.712L133.642 257.457C133.642 257.457 129.807 258.609 127.583 256.657C121.572 251.309 111.102 236.759 107.453 228.786C104.215 221.465 101.629 213.872 99.7246 206.097L116.078 208.712Z" fill="white"/>
<path d="M101.286 199.246C101.286 199.246 111.863 204.321 117.464 206.77L116.079 206.965L116.986 210.02L111.132 209.512L102.838 207.561L102.389 204.057H104.955L101.286 199.246Z" fill="#B1DEB0"/>
<path d="M261.78 75.9921C241.64 93.9971 213.567 96.0953 199.077 80.6665C184.587 65.2378 189.183 38.1375 209.313 20.1617C229.443 2.18595 257.516 -2.95639e-05 271.996 15.4482C286.476 30.8965 281.92 57.9772 261.78 75.9921Z" fill="#F4901E"/>
<path d="M259.028 70.8589C238.888 88.864 210.815 90.9719 196.325 75.5432C181.835 60.1145 186.421 33.0142 206.561 15.0384C226.701 -2.93739 254.764 -5.05506 269.254 10.3639C283.744 25.7829 279.167 52.8539 259.028 70.8589Z" fill="#FFC400"/>
<path d="M221.256 59.4508L213.245 49.77L214.426 48.7941C215.175 49.0782 215.908 49.404 216.621 49.77C217.322 50.1221 217.997 50.5233 218.641 50.9703L239.376 33.8241L241.972 31.8723C241.191 31.5269 240.46 31.0807 239.796 30.5451C239.11 29.9685 238.494 29.3135 237.961 28.5933L238.839 27.6174C240.184 28.3226 241.576 28.9324 243.006 29.4423C244.578 30.0061 246.219 30.3541 247.885 30.4768L248.558 31.3063L221.159 53.9468C221.453 54.653 221.704 55.3765 221.91 56.1132C222.132 56.8808 222.314 57.6593 222.456 58.4456L221.256 59.4508Z" fill="#F4901E"/>
</svg>
