<svg width="36" height="36" viewBox="0 0 36 36" fill="none" xmlns="http://www.w3.org/2000/svg">
<path d="M29.847 18.2024L29.7846 18.2082C29.609 18.2245 29.433 18.2368 29.2568 18.2449L29.2292 18.2461C29.1511 18.2493 29.0728 18.2521 28.9948 18.2542C28.905 18.2561 28.8153 18.2572 28.7255 18.2572L28.7163 18.2571C28.6152 18.2571 28.5132 18.255 28.4105 18.2519C28.3897 18.2513 28.369 18.2498 28.3484 18.2491C28.2583 18.2457 28.1682 18.2411 28.0782 18.2354C28.0633 18.2345 28.0486 18.2331 28.0334 18.2322C27.8149 18.217 27.5968 18.1949 27.3797 18.1659L27.3589 18.163L27.3414 18.1619C26.23 18.0109 25.1896 17.6961 24.193 17.3308L24.1815 17.3262C24.0558 17.2765 23.9301 17.2254 23.8034 17.1738C23.5374 17.0645 23.272 16.9528 23.0066 16.8416C22.0952 16.4585 21.1526 16.0625 20.1836 15.7572C19.4654 15.5294 18.7182 15.4059 17.9648 15.3903C17.946 15.3897 17.9268 15.3897 17.9078 15.3889C17.9017 15.3889 17.8955 15.3884 17.8893 15.3884H17.8838C17.5239 15.3769 17.1637 15.398 16.8076 15.4514C16.384 15.5053 15.9649 15.5902 15.5538 15.7056C15.6795 15.5472 15.8029 15.3869 15.9239 15.2249C16.1528 14.9182 16.3324 14.5303 16.4723 14.0393C16.522 13.866 16.6372 13.4624 16.4959 13.0628C16.5228 13.0383 16.5493 13.0131 16.5764 12.9889C16.8016 12.8448 17.0085 12.6737 17.1923 12.4795C17.88 11.9526 18.6334 11.5174 19.4335 11.185C20.6714 10.6729 22.1668 10.3416 23.8573 10.5118C28.3455 10.9642 30.0751 11.917 33.2395 8.41825C30.0529 3.36097 24.4194 0 18.0001 0C10.7991 0 4.58665 4.22913 1.70873 10.3387C2.50235 11.1058 4.09696 11.8671 7.20659 11.1685C7.84641 10.822 8.56272 10.6411 9.29032 10.6421C10.0176 10.6408 10.7336 10.8217 11.3729 11.1685C16.7547 12.3776 17.6046 9.21534 17.6046 9.21534C17.6046 11.4529 16.7116 12.4395 15.358 12.8505C15.4742 12.8957 15.5711 12.9419 15.6497 12.9926C15.9383 13.1771 15.9891 13.418 15.8612 13.8648C15.7632 14.2075 15.625 14.5628 15.4145 14.8448C14.9003 15.535 14.3324 16.1859 13.7857 16.8521C13.7828 16.8573 13.7799 16.8547 13.7818 16.87C13.7933 16.9814 13.8879 17.0369 13.9894 16.9895C14.0191 16.9756 14.0483 16.9616 14.0775 16.9476C14.9981 16.5024 15.9373 16.2009 16.8921 16.0817C17.2204 16.04 17.5511 16.0209 17.8819 16.0245C18.5776 16.0309 19.2819 16.14 19.9926 16.364C21.2086 16.7472 22.3797 17.2767 23.5618 17.7623C23.6906 17.8147 23.8192 17.8673 23.948 17.918C25.0284 18.3499 26.1262 18.7179 27.2956 18.7964C27.7597 18.8586 28.2358 18.8935 28.7257 18.8935C29.1105 18.8935 29.5635 18.8753 29.9236 18.8418C29.9277 19.6584 29.9266 20.4748 29.9236 21.2894V29.321C29.9279 29.4333 29.9091 29.5454 29.8684 29.6503C29.8277 29.7551 29.7659 29.8505 29.6868 29.9305C29.6077 30.0105 29.5131 30.0734 29.4088 30.1154C29.3044 30.1574 29.1926 30.1775 29.0801 30.1745C28.6471 30.1641 28.3029 29.8018 28.279 29.3693L28.2248 28.4002C28.0157 26.8278 27.5841 25.3358 26.8735 23.8182C26.6064 24.665 26.3471 25.4866 26.092 26.2984C25.836 27.1092 25.5841 27.9089 25.3322 28.7096L25.0508 29.6562C24.9313 30.0569 24.4926 30.2953 24.0633 30.1277C23.7669 30.011 23.5895 29.7048 23.6151 29.3875C23.6151 29.3875 24.1014 25.3826 23.8749 23.2713C21.8249 24.5703 19.5934 25.0772 17.2062 25.117C17.1442 26.5576 17.0837 27.8783 17.021 29.334V29.4239C17.021 29.5298 16.999 29.6346 16.9564 29.7315C16.9137 29.8284 16.8513 29.9154 16.7732 29.9869C16.695 30.0583 16.6028 30.1127 16.5025 30.1466C16.4021 30.1804 16.2958 30.193 16.1904 30.1835C15.8285 30.1511 15.5464 29.8538 15.4996 29.4946L15.3229 28.2309C15.171 27.2564 15.021 26.2905 14.8708 25.326H14.7681C14.6369 26.262 14.5058 27.1992 14.3716 28.1538L14.2124 29.464C14.1996 29.5696 14.1653 29.6714 14.1116 29.7632C14.058 29.8551 13.9861 29.935 13.9004 29.998C13.8146 30.0609 13.7169 30.1057 13.6133 30.1295C13.5096 30.1533 13.4022 30.1557 13.2976 30.1364C12.9334 30.0711 12.6728 29.7454 12.6587 29.3756L12.5965 27.8423C12.5463 26.8001 12.4961 25.7732 12.4397 24.7467C12.4333 24.6378 12.3412 24.5299 12.2753 24.4295L12.2656 24.4149C11.6538 23.4887 11.1817 22.4775 10.8644 21.4138C10.6382 20.6579 10.4142 19.9013 10.1924 19.1441C10.7799 18.9166 11.3301 18.4779 11.4064 18.3508C11.4834 18.2233 11.3284 18.0843 11.1767 18.175C11.0034 18.2839 10.5247 18.4792 10.2982 18.4986C9.75848 18.5445 9.21231 18.5263 8.66931 18.5194C8.00483 18.5104 7.58895 18.0804 7.56512 17.4158C7.55573 17.1407 7.57552 16.8433 7.47917 16.5961C7.08192 15.5772 6.79822 14.5365 6.77886 13.4371C6.77511 13.2232 6.70664 13.1303 6.55641 13.1015C6.14212 13.116 5.73592 13.1247 5.34503 13.1189C3.50601 13.0917 1.97871 12.7507 1.32203 11.2205C0.470338 13.313 0 15.6017 0 18.0001C0 27.9411 8.059 36 18.0002 36C27.9411 36 36 27.941 36 18.0001C36 17.2062 35.9481 16.4245 35.8483 15.6578C34.5399 16.7524 32.5433 17.9375 29.8469 18.2024" fill="white"/>
</svg>
