<svg width="80" height="80" viewBox="0 0 80 80" fill="none" xmlns="http://www.w3.org/2000/svg">
<rect y="7.61914" width="72.381" height="72.381" rx="10" fill="#4F9D3A" fill-opacity="0.05"/>
<rect x="7.61914" width="72.381" height="72.381" rx="10" fill="#4F9D3A" fill-opacity="0.05"/>
<path d="M32.9238 44.9922C32.3464 44.9922 31.8398 44.4519 31.8398 43.8359C31.8398 43.3817 32.1264 42.9721 32.5528 42.8168C33.1093 42.614 33.7577 42.889 34.331 43.5716C34.7162 44.03 35.3998 44.0895 35.8582 43.7045C36.3167 43.3195 36.3762 42.6357 35.9911 42.1773C35.4051 41.4795 34.723 40.9999 34.0078 40.7591V39.5C34.0078 38.9014 33.5225 38.416 32.9238 38.416C32.3252 38.416 31.8398 38.9014 31.8398 39.5V40.7699C31.8302 40.7732 31.8205 40.7762 31.8109 40.7798C30.5315 41.2457 29.6719 42.4739 29.6719 43.8359C29.6719 44.6999 30.0041 45.5231 30.6073 46.1541C31.2275 46.8029 32.0502 47.1602 32.9238 47.1602C33.5215 47.1602 34.0078 47.6464 34.0078 48.2441C34.0078 48.6808 33.7479 49.0729 33.3459 49.2432C32.8605 49.4487 32.2797 49.2733 31.7518 48.762C31.3218 48.3455 30.6357 48.3563 30.219 48.7862C29.8025 49.2162 29.8133 49.9024 30.2433 50.319C30.7327 50.7931 31.2768 51.1281 31.8398 51.3172V52.5801C31.8398 53.1787 32.3252 53.6641 32.9238 53.6641C33.5225 53.6641 34.0078 53.1787 34.0078 52.5801V51.3103C35.3299 50.8403 36.1758 49.6066 36.1758 48.2441C36.1758 46.451 34.717 44.9922 32.9238 44.9922Z" fill="#ffff00"/>
<path d="M54.459 22.3618C52.4629 21.4836 49.8452 21 47.0879 21C41.4452 21 36.248 23.0719 36.248 26.4199C36.248 27.2576 36.248 33.7703 36.248 34.5531C35.1792 34.2418 34.0628 34.0801 32.9238 34.0801C29.7462 34.0801 26.7519 35.3358 24.4926 37.6159C22.2404 39.8889 21 42.8934 21 46.0762C21 52.651 26.349 58 32.9238 58C35.1179 58 37.2272 57.4104 39.0707 56.3062C41.0868 57.3878 43.9597 58 47.0879 58C49.8452 58 52.4629 57.5164 54.459 56.6382C56.7424 55.6337 58 54.1924 58 52.5801C58 51.905 58 27.109 58 26.4199C58 24.8075 56.7424 23.3663 54.459 22.3618ZM32.9238 55.832C27.5444 55.832 23.168 51.4556 23.168 46.0762C23.168 40.6569 27.5444 36.248 32.9238 36.248C38.343 36.248 42.752 40.6569 42.752 46.0762C42.752 51.4556 38.343 55.832 32.9238 55.832ZM55.832 52.5801C55.832 53.906 52.4256 55.832 47.0879 55.832C44.8172 55.832 42.672 55.4681 41.0443 54.8304C41.1591 54.7249 41.2727 54.6178 41.3842 54.5074C42.3603 53.5402 43.1479 52.4381 43.7304 51.2448C44.8074 51.4108 45.9324 51.4961 47.0879 51.4961C49.9383 51.4961 53.473 50.942 55.832 49.399V52.5801ZM55.832 46.0762C55.832 47.4021 52.4256 49.3281 47.0879 49.3281C46.2036 49.3281 45.3415 49.2728 44.5108 49.1658C44.7802 48.1697 44.9199 47.1332 44.9199 46.0762C44.9199 45.6506 44.8967 45.2283 44.8524 44.8103C45.5825 44.8826 46.3298 44.9199 47.0879 44.9199C49.9385 44.9199 53.4729 44.3658 55.832 42.8228V46.0762ZM55.832 39.5C55.832 40.8259 52.4256 42.752 47.0879 42.752C46.1652 42.752 45.2625 42.6916 44.3943 42.5743C43.8317 40.7495 42.828 39.0698 41.4374 37.6633C43.1133 38.1527 45.06 38.416 47.0879 38.416C49.9385 38.416 53.4729 37.8619 55.832 36.3189V39.5ZM55.832 32.9961C55.832 34.322 52.4256 36.248 47.0879 36.248C44.6304 36.248 42.3368 35.8302 40.6297 35.0715C39.2642 34.4647 38.416 33.6694 38.416 32.9961V29.7582C40.7628 31.2965 44.2675 31.8398 47.0879 31.8398C49.9385 31.8398 53.4729 31.2857 55.832 29.7428V32.9961ZM47.0879 29.6719C41.7926 29.6719 38.416 27.7745 38.416 26.4199C38.416 25.0611 41.8022 23.168 47.0879 23.168C52.4256 23.168 55.832 25.094 55.832 26.4199C55.832 27.7459 52.4256 29.6719 47.0879 29.6719Z" fill="#ffff"/>
</svg>
