<svg width="80" height="80" viewBox="0 0 80 80" fill="none" xmlns="http://www.w3.org/2000/svg">
<rect y="7.61914" width="72.381" height="72.381" rx="10" fill="#4F9D3A" fill-opacity="0.05"/>
<rect x="7.61914" width="72.381" height="72.381" rx="10" fill="#4F9D3A" fill-opacity="0.05"/>
<path d="M45.0628 58.0001H39.9378C38.742 58.0001 37.3753 56.9751 37.3753 54.9251V51.3376C37.3753 49.6293 36.5212 48.0917 35.1545 46.8959C32.0795 44.5042 30.542 41.0876 30.542 37.3292C30.7128 30.8376 36.0087 25.7126 42.3295 25.5417C45.5753 25.5417 48.6503 26.7376 50.8712 28.9584C53.092 31.1792 54.4587 34.2542 54.4587 37.5001C54.4587 41.0876 52.9212 44.5042 50.017 46.7251C48.4795 47.9209 47.6253 49.8001 47.6253 51.5084V55.4376C47.6253 56.8043 46.4295 58.0001 45.0628 58.0001ZM42.5003 27.2501C37.0337 27.2501 32.4212 31.8626 32.2503 37.3292C32.2503 40.5751 33.617 43.6501 36.1795 45.5293C38.0587 47.0668 39.0837 49.1168 39.0837 51.3376V54.9251C39.0837 55.2668 39.0837 56.2918 39.9378 56.2918H45.0628C45.5753 56.2918 45.917 55.9501 45.917 55.4376V51.5084C45.917 49.2876 47.1128 46.8959 48.992 45.3584C51.3837 43.4792 52.7503 40.5751 52.7503 37.5001C52.7503 34.7667 51.7253 32.2042 49.6753 30.1542C47.7962 28.2751 45.2337 27.2501 42.5003 27.2501Z" fill="#ffff00"/>
<path d="M46.7708 52.8751H38.2292C37.7167 52.8751 37.375 52.5334 37.375 52.0209C37.375 51.5084 37.7167 51.1667 38.2292 51.1667H46.7708C47.2833 51.1667 47.625 51.5084 47.625 52.0209C47.625 52.5334 47.2833 52.8751 46.7708 52.8751Z" fill="#ffff00"/>
<path d="M42.4997 22.125C41.9872 22.125 41.6455 21.7833 41.6455 21.2708V17.8542C41.6455 17.3417 41.9872 17 42.4997 17C43.0122 17 43.3538 17.3417 43.3538 17.8542V21.2708C43.3538 21.7833 43.0122 22.125 42.4997 22.125Z" fill="#ffff00"/>
<path d="M53.9464 26.9084C53.7756 26.9084 53.4339 26.9084 53.2631 26.7375C52.9214 26.3959 52.9214 25.8834 53.2631 25.5417L55.6548 23.15C55.9964 22.8084 56.5089 22.8084 56.8506 23.15C57.1923 23.4917 57.1923 24.0042 56.8506 24.3459L54.4589 26.7375C54.4589 26.7375 54.1173 26.9084 53.9464 26.9084Z" fill="#ffff00"/>
<path d="M62.1458 38.3541H58.7292C58.2167 38.3541 57.875 38.0124 57.875 37.4999C57.875 36.9874 58.2167 36.6458 58.7292 36.6458H62.1458C62.6583 36.6458 63 36.9874 63 37.4999C63 38.0124 62.6583 38.3541 62.1458 38.3541Z" fill="#ffff00"/>
<path d="M56.3381 52.1916C56.1673 52.1916 55.8256 52.1916 55.6548 52.0208L53.2631 49.6291C52.9214 49.2874 52.9214 48.7749 53.2631 48.4333C53.6048 48.0916 54.1173 48.0916 54.4589 48.4333L56.8506 50.8249C57.1923 51.1666 57.1923 51.6791 56.8506 52.0208C56.8506 52.1916 56.6798 52.1916 56.3381 52.1916Z" fill="#ffff00"/>
<path d="M28.6622 52.1916C28.4914 52.1916 28.1497 52.1916 27.9789 52.0208C27.6372 51.6791 27.6372 51.1666 27.9789 50.8249L30.3706 48.4333C30.7122 48.0916 31.2247 48.0916 31.5664 48.4333C31.9081 48.7749 31.9081 49.2874 31.5664 49.6291L29.1747 52.0208C29.0039 52.1916 28.8331 52.1916 28.6622 52.1916Z" fill="#ffff00"/>
<path d="M26.2708 38.3541H22.8542C22.3417 38.3541 22 38.0124 22 37.4999C22 36.9874 22.3417 36.6458 22.8542 36.6458H26.2708C26.7833 36.6458 27.125 36.9874 27.125 37.4999C27.125 38.0124 26.7833 38.3541 26.2708 38.3541Z" fill="#ffff00"/>
<path d="M31.0539 26.9083C30.8831 26.9083 30.5414 26.9083 30.3706 26.7375L27.9789 24.175C27.6372 23.8333 27.6372 23.3208 27.9789 22.9792C28.3206 22.6375 28.8331 22.6375 29.1747 22.9792L31.5664 25.3708C31.9081 25.7125 31.9081 26.225 31.5664 26.5667C31.3956 26.7375 31.2247 26.9083 31.0539 26.9083Z" fill="#ffff00"/>
<path d="M49.333 38.3542C48.8205 38.3542 48.4788 38.0125 48.4788 37.5C48.4788 34.2542 45.7455 31.5208 42.4997 31.5208C41.9872 31.5208 41.6455 31.1792 41.6455 30.6667C41.6455 30.1542 41.9872 29.8125 42.4997 29.8125C46.7705 29.8125 50.1872 33.2292 50.1872 37.5C50.1872 38.0125 49.8455 38.3542 49.333 38.3542Z" fill="#ffff"/>
</svg>
