<svg width="80" height="80" viewBox="0 0 80 80" fill="none" xmlns="http://www.w3.org/2000/svg">
<rect y="7.61914" width="72.381" height="72.381" rx="10" fill="#4F9D3A" fill-opacity="0.05"/>
<rect x="7.61914" width="72.381" height="72.381" rx="10" fill="#4F9D3A" fill-opacity="0.05"/>
<mask id="mask0" mask-type="alpha" maskUnits="userSpaceOnUse" x="16" y="16" width="48" height="48">
<rect x="16" y="16" width="48" height="48" fill="#C4C4C4"/>
</mask>
<g mask="url(#mask0)">
<path d="M40.6183 61C35.1538 60.9874 29.9166 58.7713 26.0526 54.8364C22.1886 50.9015 20.0123 45.5682 20 40.0034C20 28.2255 28.6659 19 39.7983 19C50.9308 19 59.9967 28.4223 59.9967 40.0034C60.0065 40.1097 59.9945 40.217 59.9613 40.3183C59.928 40.4196 59.8744 40.5128 59.8038 40.5918C59.7332 40.6708 59.6472 40.7339 59.5513 40.7771C59.4553 40.8203 59.3516 40.8426 59.2467 40.8426C59.1418 40.8426 59.0381 40.8203 58.9422 40.7771C58.8462 40.7339 58.7602 40.6708 58.6896 40.5918C58.619 40.5128 58.5654 40.4196 58.5322 40.3183C58.499 40.217 58.4869 40.1097 58.4968 40.0034C58.4968 29.2709 50.1042 20.541 39.7917 20.541C29.4792 20.541 21.4932 29.0876 21.4932 40.0034C21.5014 45.0328 23.4184 49.8643 26.8436 53.4877C30.2687 57.111 34.9368 59.2458 39.8717 59.4454V56.2753C35.7545 56.1163 31.8611 54.3264 29.0209 51.287C26.1806 48.2475 24.6181 44.1988 24.6663 40.0034C24.6663 31.0155 31.6057 23.7112 40.1383 23.7112C48.6709 23.7112 55.7104 31.0155 55.7104 40.0034C55.7329 43.1289 54.8636 46.1939 53.2081 48.8258C51.5525 51.4577 49.182 53.5434 46.3845 54.8293C46.2953 54.8712 46.1988 54.8945 46.1007 54.898C46.0026 54.9015 45.9048 54.8851 45.813 54.8497C45.7212 54.8143 45.6372 54.7607 45.5659 54.6919C45.4946 54.6232 45.4375 54.5406 45.3979 54.4492C45.3155 54.2634 45.3077 54.0521 45.3762 53.8606C45.4447 53.6691 45.5841 53.5124 45.7645 53.4241C48.2925 52.2564 50.4335 50.367 51.9279 47.9848C53.4223 45.6026 54.206 42.8301 54.1838 40.0034C54.1838 31.8573 47.8643 25.2521 40.105 25.2521C32.3456 25.2521 26.1062 31.8709 26.1062 40.0034C26.0865 41.9481 26.4486 43.8772 27.1714 45.6774C27.8941 47.4775 28.9629 49.1125 30.3148 50.4861C31.6668 51.8597 33.2747 52.9443 35.0441 53.6761C36.8135 54.408 38.7087 54.7724 40.6183 54.7479C40.7172 54.7487 40.815 54.7695 40.906 54.8088C40.9971 54.8482 41.0796 54.9055 41.149 54.9773C41.2183 55.0492 41.2731 55.1343 41.3101 55.2277C41.3471 55.3211 41.3658 55.421 41.3649 55.5217V60.2329C41.3649 60.4352 41.2864 60.6293 41.1466 60.7729C41.0068 60.9166 40.8169 60.9982 40.6183 61Z" fill="#ffff" stroke="#4F9D3A" stroke-width="0.5"/>
<path d="M45.5 33L47.0001 31.5" stroke="#ffff00" stroke-width="2" stroke-linecap="round"/>
<path d="M30 44L31.5001 42.5" stroke="#ffff00" stroke-width="2" stroke-linecap="round"/>
<path d="M48.3461 42.3018L50.0001 43.8017" stroke="#ffff00" stroke-width="2" stroke-linecap="round"/>
<path d="M33.0004 31.3018L34.6543 32.8017" stroke="#ffff00" stroke-width="2" stroke-linecap="round"/>
<path d="M40.0002 49.9999L40.0002 47.9999" stroke="#ffff00" stroke-width="2" stroke-linecap="round"/>
<path d="M35.0804 47.9998C34.7613 47.9962 34.4469 47.9275 34.1593 47.7985C33.8716 47.6695 33.6177 47.4833 33.4154 47.253C33.2131 47.0227 33.0673 46.7539 32.9882 46.4654C32.909 46.1769 32.8986 45.8758 32.9575 45.5831L33.6651 41.562L30.6222 38.7558C30.3363 38.4833 30.1382 38.1413 30.0507 37.7689C29.9631 37.3965 29.9895 37.0086 30.1268 36.6494C30.26 36.2922 30.5001 35.9779 30.8186 35.7439C31.1371 35.5099 31.5208 35.3659 31.9243 35.3289L36.1702 34.7676L38.0809 31.136C38.2577 30.7956 38.5336 30.5084 38.8772 30.3075C39.2207 30.1066 39.618 30 40.0234 30C40.4289 30 40.8262 30.1066 41.1697 30.3075C41.5133 30.5084 41.7892 30.7956 41.966 31.136L43.8696 34.7478L48.1155 35.3619C48.5144 35.4099 48.8904 35.5626 49.1998 35.8022C49.5093 36.0418 49.7394 36.3586 49.8635 36.7155C50.0096 37.0691 50.0392 37.4554 49.9484 37.8248C49.8577 38.1942 49.6506 38.5299 49.3539 38.7888L46.0492 41.5818L46.8134 45.6029C46.89 45.9737 46.8514 46.3571 46.7022 46.708C46.553 47.059 46.2994 47.3628 45.9713 47.5838C45.6457 47.8005 45.2632 47.931 44.8645 47.9612C44.4657 47.9914 44.0657 47.9203 43.7068 47.7555L39.8713 45.8935L36.0499 47.7819C35.7516 47.9296 35.4181 48.0046 35.0804 47.9998ZM35.314 41.6742L34.486 45.8935C34.4665 45.9905 34.4765 46.0907 34.515 46.1827C34.5534 46.2746 34.6187 46.3547 34.7034 46.4139C34.7881 46.473 34.8889 46.5088 34.9943 46.5172C35.0997 46.5255 35.2056 46.5062 35.2998 46.4613L39.3122 44.4805C39.4655 44.3865 39.6433 44.3332 39.8265 44.3262C40.0097 44.3193 40.1915 44.3589 40.3525 44.4408L44.4216 46.4217C44.5172 46.4632 44.6226 46.4813 44.7278 46.4743C44.833 46.4674 44.9346 46.4357 45.0231 46.3821C45.1137 46.3323 45.1847 46.2566 45.2255 46.1662C45.2663 46.0758 45.2747 45.9755 45.2495 45.8803L44.4499 41.6082C44.4467 41.5642 44.4467 41.5201 44.4499 41.4761C44.4419 41.2721 44.4906 41.0697 44.5914 40.8885C44.6326 40.8028 44.6929 40.7262 44.7683 40.664L48.2217 37.7257C48.2872 37.6688 48.3349 37.5964 48.3599 37.5161C48.3848 37.4359 48.3859 37.3509 48.3632 37.2701C48.3366 37.1657 48.2773 37.0711 48.1929 36.9982C48.1084 36.9253 48.0027 36.8774 47.8891 36.8607L43.4025 36.2005C43.2211 36.189 43.0466 36.1312 42.8981 36.0334C42.7495 35.9355 42.6327 35.8015 42.5604 35.6458L40.5294 31.7831C40.4775 31.701 40.4035 31.6329 40.3148 31.5856C40.2261 31.5383 40.1256 31.5134 40.0234 31.5134C39.9212 31.5134 39.8208 31.5383 39.7321 31.5856C39.6433 31.6329 39.5694 31.701 39.5175 31.7831L37.4723 35.6656C37.4002 35.8238 37.2828 35.9605 37.133 36.0606C36.9833 36.1608 36.8069 36.2206 36.6231 36.2335L32.1224 36.8277C32.0186 36.8379 31.9199 36.875 31.8375 36.9348C31.7551 36.9946 31.6923 37.0748 31.6563 37.1662C31.6202 37.2576 31.6122 37.3566 31.6333 37.452C31.6544 37.5473 31.7037 37.6353 31.7757 37.7059L35.0238 40.7102C35.1535 40.8358 35.2453 40.991 35.29 41.1603C35.3348 41.3296 35.3308 41.5068 35.2786 41.6742H35.314Z" fill="#ffff00" stroke="#ffff00" stroke-width="0.5"/>
</g>
</svg>
