<svg width="80" height="80" viewBox="0 0 80 80" fill="none" xmlns="http://www.w3.org/2000/svg">
<rect y="7.61914" width="72.381" height="72.381" rx="10" fill="#4F9D3A" fill-opacity="0.05"/>
<rect x="7.61914" width="72.381" height="72.381" rx="10" fill="#4F9D3A" fill-opacity="0.05"/>
<path d="M40.1994 22.7498C40.5035 22.7498 40.7493 22.5035 40.7493 22.1999C40.7493 21.8963 40.5035 21.6499 40.1994 21.6499C39.8952 21.6499 39.6494 21.8963 39.6494 22.1999C39.6494 22.5035 39.8953 22.7498 40.1994 22.7498Z" fill="#4F9D3A"/>
<path d="M38.55 24.4C38.8541 24.4 39.0999 24.1536 39.0999 23.85C39.0999 23.5464 38.8541 23.3 38.55 23.3C38.2458 23.3 38 23.5464 38 23.85C38 24.1536 38.2459 24.4 38.55 24.4Z" fill="#4F9D3A"/>
<path d="M31.9494 27.6998C32.2536 27.6998 32.4993 27.4534 32.4993 27.1498C32.4993 26.8462 32.2535 26.5999 31.9494 26.5999C31.6452 26.5999 31.3994 26.8462 31.3994 27.1498C31.3994 27.4534 31.6452 27.6998 31.9494 27.6998Z" fill="#4F9D3A"/>
<path d="M35.2502 27.6998C35.5543 27.6998 35.8001 27.4534 35.8001 27.1498C35.8001 26.8462 35.5543 26.5999 35.2502 26.5999C34.946 26.5999 34.7002 26.8462 34.7002 27.1498C34.7002 27.4534 34.946 27.6998 35.2502 27.6998Z" fill="#4F9D3A"/>
<path d="M33.6007 26.0499C33.9049 26.0499 34.1507 25.8035 34.1507 25.4999C34.1507 25.1963 33.9049 24.95 33.6007 24.95C33.2966 24.95 33.0508 25.1963 33.0508 25.4999C33.0508 25.8035 33.2966 26.0499 33.6007 26.0499Z" fill="#4F9D3A"/>
<path d="M33.6007 29.3499C33.9049 29.3499 34.1507 29.1035 34.1507 28.8C34.1507 28.4964 33.9049 28.25 33.6007 28.25C33.2966 28.25 33.0508 28.4964 33.0508 28.8C33.0508 29.1035 33.2966 29.3499 33.6007 29.3499Z" fill="#4F9D3A"/>
<path d="M38.55 27.6998C38.8541 27.6998 39.0999 27.4534 39.0999 27.1498C39.0999 26.8462 38.8541 26.5999 38.55 26.5999C38.2458 26.5999 38 26.8462 38 27.1498C38 27.4534 38.2459 27.6998 38.55 27.6998Z" fill="#4F9D3A"/>
<path d="M40.1994 26.0499C40.5035 26.0499 40.7493 25.8035 40.7493 25.4999C40.7493 25.1963 40.5035 24.95 40.1994 24.95C39.8952 24.95 39.6494 25.1963 39.6494 25.4999C39.6494 25.8035 39.8953 26.0499 40.1994 26.0499Z" fill="#4F9D3A"/>
<path d="M36.9006 26.0499C37.2047 26.0499 37.4505 25.8035 37.4505 25.4999C37.4505 25.1963 37.2047 24.95 36.9006 24.95C36.5964 24.95 36.3506 25.1963 36.3506 25.4999C36.3506 25.8035 36.5964 26.0499 36.9006 26.0499Z" fill="#4F9D3A"/>
<path d="M40.1994 29.3499C40.5035 29.3499 40.7493 29.1035 40.7493 28.8C40.7493 28.4964 40.5035 28.25 40.1994 28.25C39.8952 28.25 39.6494 28.4964 39.6494 28.8C39.6494 29.1035 39.8953 29.3499 40.1994 29.3499Z" fill="#4F9D3A"/>
<path d="M36.9006 29.3499C37.2047 29.3499 37.4505 29.1035 37.4505 28.8C37.4505 28.4964 37.2047 28.25 36.9006 28.25C36.5964 28.25 36.3506 28.4964 36.3506 28.8C36.3506 29.1035 36.5964 29.3499 36.9006 29.3499Z" fill="#4F9D3A"/>
<path d="M31.9494 30.9998C32.2536 30.9998 32.4993 30.7535 32.4993 30.4499C32.4993 30.1463 32.2535 29.8999 31.9494 29.8999C31.6452 29.8999 31.3994 30.1463 31.3994 30.4499C31.3994 30.7535 31.6452 30.9998 31.9494 30.9998Z" fill="#4F9D3A"/>
<path d="M35.2502 30.9998C35.5543 30.9998 35.8001 30.7535 35.8001 30.4499C35.8001 30.1463 35.5543 29.8999 35.2502 29.8999C34.946 29.8999 34.7002 30.1463 34.7002 30.4499C34.7002 30.7535 34.946 30.9998 35.2502 30.9998Z" fill="#4F9D3A"/>
<path d="M38.55 30.9998C38.8541 30.9998 39.0999 30.7535 39.0999 30.4499C39.0999 30.1463 38.8541 29.8999 38.55 29.8999C38.2458 29.8999 38 30.1463 38 30.4499C38 30.7535 38.2459 30.9998 38.55 30.9998Z" fill="#4F9D3A"/>
<path d="M31.9494 34.2999C32.2536 34.2999 32.4993 34.0535 32.4993 33.7499C32.4993 33.4463 32.2535 33.2 31.9494 33.2C31.6452 33.2 31.3994 33.4463 31.3994 33.7499C31.3994 34.0535 31.6452 34.2999 31.9494 34.2999Z" fill="#4F9D3A"/>
<path d="M30.3 31.5498C29.9958 31.5498 29.75 31.7962 29.75 32.0998C29.75 32.4034 29.9959 32.6497 30.3 32.6497C30.6041 32.6497 30.8499 32.4034 30.8499 32.0998C30.8499 31.7962 30.6041 31.5498 30.3 31.5498Z" fill="#4F9D3A"/>
<path d="M35.2502 34.2999C35.5543 34.2999 35.8001 34.0535 35.8001 33.7499C35.8001 33.4463 35.5543 33.2 35.2502 33.2C34.946 33.2 34.7002 33.4463 34.7002 33.7499C34.7002 34.0535 34.946 34.2999 35.2502 34.2999Z" fill="#4F9D3A"/>
<path d="M33.6007 32.65C33.9049 32.65 34.1507 32.4036 34.1507 32.1C34.1507 31.7964 33.9049 31.55 33.6007 31.55C33.2966 31.55 33.0508 31.7964 33.0508 32.1C33.0508 32.4036 33.2966 32.65 33.6007 32.65Z" fill="#4F9D3A"/>
<path d="M38.55 34.2999C38.8541 34.2999 39.0999 34.0535 39.0999 33.7499C39.0999 33.4463 38.8541 33.2 38.55 33.2C38.2458 33.2 38 33.4463 38 33.7499C38 34.0535 38.2459 34.2999 38.55 34.2999Z" fill="#4F9D3A"/>
<path d="M40.1994 32.65C40.5035 32.65 40.7493 32.4036 40.7493 32.1C40.7493 31.7964 40.5035 31.55 40.1994 31.55C39.8952 31.55 39.6494 31.7964 39.6494 32.1C39.6494 32.4036 39.8953 32.65 40.1994 32.65Z" fill="#4F9D3A"/>
<path d="M36.9006 32.65C37.2047 32.65 37.4505 32.4036 37.4505 32.1C37.4505 31.7964 37.2047 31.55 36.9006 31.55C36.5964 31.55 36.3506 31.7964 36.3506 32.1C36.3506 32.4036 36.5964 32.65 36.9006 32.65Z" fill="#4F9D3A"/>
<path d="M27.5501 35.95H42.3999C42.7041 35.95 42.9499 35.7036 42.9499 35.4V20.5501C42.9499 20.3978 42.8866 20.252 42.7755 20.148C42.665 20.0446 42.5137 19.9924 42.3625 20.0012C34.1626 20.5622 27.5589 27.166 27.0012 35.3626C26.9913 35.5144 27.0441 35.664 27.1485 35.7757C27.2519 35.8867 27.3977 35.95 27.5501 35.95ZM34.7011 23.8305C34.7008 23.8371 34.7001 23.8435 34.7001 23.8502C34.7001 24.1537 34.9459 24.4001 35.25 24.4001C35.5542 24.4001 35.8 24.1537 35.8 23.8502C35.8 23.6176 35.6555 23.4191 35.4513 23.3387C35.8348 23.1029 36.2293 22.8836 36.6337 22.6814C36.7126 22.7251 36.8033 22.7502 36.9 22.7502C37.1676 22.7502 37.3899 22.5594 37.4395 22.3068C38.8193 21.7138 40.301 21.3161 41.8498 21.1503V23.3002C41.5457 23.3003 41.2999 23.5466 41.2999 23.8502C41.2999 24.1537 41.5457 24.4001 41.8498 24.4001V26.6001C41.5457 26.6002 41.2999 26.8466 41.2999 27.1501C41.2999 27.4536 41.5457 27.7 41.8498 27.7V29.9C41.5457 29.9001 41.2999 30.1465 41.2999 30.45C41.2999 30.7535 41.5457 30.9999 41.8498 30.9999V33.1999C41.5457 33.2 41.2999 33.4464 41.2999 33.7499C41.2999 34.0534 41.5457 34.2998 41.8498 34.2999V34.8498H28.1501C28.1762 34.6055 28.2085 34.363 28.246 34.122C28.3464 34.2311 28.49 34.2998 28.6502 34.2998C28.9543 34.2998 29.2001 34.0534 29.2001 33.7498C29.2001 33.4463 28.9543 33.1999 28.6502 33.1999C28.5623 33.1999 28.4797 33.221 28.4061 33.2575C28.7158 31.8177 29.2278 30.4509 29.9111 29.1888C30.0106 29.2883 30.1481 29.3499 30.3002 29.3499C30.6043 29.3499 30.8501 29.1035 30.8501 28.8C30.8501 28.5484 30.6811 28.3366 30.4502 28.2712C31.5579 26.5242 33.0065 25.0123 34.7011 23.8305Z" fill="#4F9D3A"/>
<path d="M59.4501 43.0998C59.7537 43.0998 60 42.8534 60 42.5498V39.2498C60 38.9462 59.7537 38.6999 59.4501 38.6999H57.4241C58.9807 37.6041 59.9998 35.7938 59.9998 33.7499C59.9998 32.3031 59.489 30.9734 58.6385 29.9312C56.1674 24.2243 50.8104 20.4221 44.6375 20.0014C44.4792 19.9915 44.3356 20.0443 44.2245 20.1483C44.1135 20.2522 44.0502 20.398 44.0502 20.5497V37.0495H27.5922C27.4399 37.0495 27.2941 37.1128 27.1901 37.2244C27.0862 37.3355 27.0328 37.4851 27.0433 37.6369C27.2875 41.2184 28.6608 44.5525 31.0159 47.2783C31.2249 47.5209 31.4614 47.7639 31.7826 48.0681L32.6213 48.8611C32.9419 49.1636 33.1983 49.3864 33.4523 49.5822C36.3442 51.8069 39.8762 52.9987 43.5172 52.9987C43.9451 52.9987 44.3746 52.9822 44.8047 52.9493C44.8375 52.9466 44.8701 52.9434 44.9027 52.9403C44.9771 52.9779 45.061 52.9996 45.1502 52.9996H58.35C58.6536 52.9996 58.9 52.7532 58.9 52.4496V49.6997H59.4499C59.7535 49.6997 59.9999 49.4533 59.9999 49.1497V45.8497C59.9999 45.5461 59.7535 45.2998 59.4499 45.2998H57.8V43.0998H59.4501ZM58.9001 41.9998H57.2502H56.6999V39.7998H58.9001V41.9998ZM53.3999 41.9998V39.7998H55.5999V41.9998H53.3999ZM52.3 39.7998V41.9998H50.1V39.7998H52.3ZM50.1 48.5997V46.3997H52.3V48.5997H50.1ZM47.9 45.2997V43.0997H50.1V45.2997H47.9ZM49 41.9998H46.8003V39.7998H49V41.9998ZM46.2503 43.0998H46.8001V45.2997H46.2503H44.6003V43.0997H46.2503V43.0998ZM46.8003 46.3997H49V48.5997H46.8003V46.3997ZM46.2503 49.6997H47.9V51.8997H45.7003V49.6997H46.2503ZM49 49.6997H51.2V51.8997H49V49.6997ZM52.3 49.6997H54.4999V51.8997H52.3V49.6997ZM53.3999 48.5997V46.3997H55.5999V48.5997H53.3999ZM51.2 45.2997V43.0997H53.3999V45.2997H51.2ZM53.95 38.6998C51.2203 38.6998 49 36.4789 49 33.7499C49 31.0208 51.2203 28.7999 53.95 28.7999C56.6796 28.7999 58.8999 31.0208 58.8999 33.7499C58.8999 36.4789 56.6796 38.6998 53.95 38.6998ZM34.1239 48.7105C33.9 48.5383 33.6696 48.3376 33.377 48.0615L32.5383 47.269C32.2457 46.9918 32.0328 46.7729 31.848 46.5589C29.7795 44.1648 28.5227 41.268 28.1922 38.1495H44.6002C44.9038 38.1495 45.1502 37.9037 45.1502 37.5995V21.1498C49.8783 21.6525 54.039 24.291 56.5324 28.2796C55.7487 27.9082 54.8732 27.6999 53.9499 27.6999C50.6142 27.6999 47.9 30.4141 47.9 33.7498C47.9 35.7936 48.9191 37.6039 50.4757 38.6997H46.2502C45.946 38.6997 45.7003 38.9461 45.7003 39.2497V41.9997H44.0503C43.7461 41.9997 43.5003 42.246 43.5003 42.5496V45.8496C43.5003 46.1532 43.7462 46.3996 44.0503 46.3996H45.7003V48.5995H45.1503C44.8461 48.5995 44.6003 48.8459 44.6003 49.1495V51.8603C40.8252 52.1223 37.1072 51.0065 34.1239 48.7105ZM57.8001 51.8997H55.5999V49.6997H57.8001V51.8997ZM58.9001 48.5997H58.3501H56.6999V46.3997H57.2502H58.9001V48.5997ZM56.7001 45.2997H54.4999V43.0997H56.7001V45.2997Z" fill="#ffff"/>
<path d="M53.9501 30.9999C54.5567 30.9999 55.05 31.4932 55.05 32.0999C55.05 32.4035 55.2959 32.6499 55.6 32.6499C55.9042 32.6499 56.15 32.4035 56.15 32.0999C56.15 30.8866 55.1633 29.8999 53.95 29.8999C52.7367 29.8999 51.75 30.8866 51.75 32.0999C51.75 33.3132 52.7367 34.2999 53.95 34.2999C54.5566 34.2999 55.05 34.7932 55.05 35.3999C55.05 36.0065 54.5566 36.4999 53.95 36.4999C53.3433 36.4999 52.85 36.0065 52.85 35.3999C52.85 35.0963 52.6041 34.8499 52.3 34.8499C51.9959 34.8499 51.7501 35.0963 51.7501 35.3999C51.7501 36.6132 52.7368 37.5999 53.9501 37.5999C55.1633 37.5999 56.15 36.6132 56.15 35.3999C56.15 34.1866 55.1633 33.1999 53.9501 33.1999C53.3434 33.1999 52.8501 32.7065 52.8501 32.0999C52.8501 31.4932 53.3434 30.9999 53.9501 30.9999Z" fill="#ffff00"/>
</svg>
